<svg width="17" height="19" viewBox="0 0 17 19" fill="none" xmlns="http://www.w3.org/2000/svg">
<g clip-path="url(#clip0_922_11)">
<path d="M16.9963 0.0146484L15.4479 17.1051L8.48776 19.0062L1.54677 17.1078L0 0.0146484H16.9963Z" fill="#264DE4"/>
<path d="M14.1222 16.0167L15.4454 1.41211H8.49805V17.5529L14.1222 16.0167Z" fill="#2965F1"/>
<path d="M3.5459 7.75195L3.7366 9.84833H8.49813V7.75195H3.5459Z" fill="#EBEBEB"/>
<path d="M8.4985 3.50879H8.49115H3.16309L3.35651 5.60521H8.4985V3.50879Z" fill="#EBEBEB"/>
<path d="M8.49848 15.3776V13.1965L8.48916 13.1989L6.11946 12.5685L5.96797 10.8965H4.81648H3.83203L4.13013 14.1881L8.48869 15.3803L8.49848 15.3776Z" fill="#EBEBEB"/>
<path d="M11.1113 9.84833L10.8643 12.5672L8.49121 13.1983V15.3793L12.8532 14.1882L12.8852 13.834L13.3852 8.3149L13.4372 7.75196L13.8213 3.50879H8.49121V5.60521H11.4894L11.2958 7.75196H8.49121V9.84833H11.1113Z" fill="white"/>
</g>
<defs>
<clipPath id="clip0_922_11">
<rect width="17" height="19" fill="white"/>
</clipPath>
</defs>
</svg>
