<svg width="17" height="12" viewBox="0 0 17 12" fill="none" xmlns="http://www.w3.org/2000/svg">
<g clip-path="url(#clip0_942_203)">
<path d="M3.06447 5.53191H1.3015V3.91489H3.06447V5.53191Z" fill="#066DA5"/>
<path d="M5.12126 5.53191H3.40027V3.91489H5.12126V5.53191Z" fill="#066DA5"/>
<path d="M7.22002 5.53191H5.45706V3.91489H7.22002V5.53191Z" fill="#066DA5"/>
<path d="M9.27681 5.53191H7.51385V3.91489H9.27681V5.53191Z" fill="#066DA5"/>
<path d="M11.3756 5.53191H9.61261V3.91489H11.3756V5.53191Z" fill="#066DA5"/>
<path d="M5.12126 3.57447H3.40027V1.95745H5.12126V3.57447Z" fill="#066DA5"/>
<path d="M7.22002 3.57447H5.45706V1.95745H7.22002V3.57447Z" fill="#066DA5"/>
<path d="M9.27681 3.57447H7.51385V1.95745H9.27681V3.57447Z" fill="#066DA5"/>
<path d="M9.27681 1.61702H7.51385V0H9.27681V1.61702Z" fill="#066DA5"/>
<path d="M17.0002 4.80851C17.0002 4.80851 16.2447 4.08511 14.6916 4.34043C14.5237 3.10638 13.2225 2.38298 13.2225 2.38298C13.2225 2.38298 12.0052 3.87234 12.8867 5.53191C12.6348 5.65957 12.2151 5.82979 11.5854 5.82979H0.0422242C-0.167652 6.6383 -0.167652 12 5.62494 12C9.7805 12 12.8867 10.0426 14.3558 6.46808C16.5385 6.6383 17.0002 4.80851 17.0002 4.80851Z" fill="#066DA5"/>
</g>
<defs>
<clipPath id="clip0_942_203">
<rect width="17" height="12" fill="white"/>
</clipPath>
</defs>
</svg>
