<svg width="15" height="17" viewBox="0 0 15 17" fill="none" xmlns="http://www.w3.org/2000/svg">
<g clip-path="url(#clip0_759_246)">
<path d="M11.2346 3.1625C10.3593 2.6221 9.53351 2.40921 8.70772 1.86881C8.19573 1.52491 7.48555 0.706117 6.89098 0.00195312C6.77537 1.13189 6.42854 1.59042 6.03216 1.91793C5.18986 2.57297 4.66135 2.76948 3.93466 3.1625C3.32358 3.47364 0.00390625 5.43875 0.00390625 9.66374C0.00390625 13.8887 3.58783 17.0001 7.56813 17.0001C11.5484 17.0001 15.0002 14.1344 15.0002 9.79474C15.0002 5.45513 11.7631 3.49002 11.2346 3.1625Z" fill="#00598E"/>
<path d="M9.89343 13.3299C10.1577 13.3299 10.4384 13.3463 10.6366 13.4773C10.8348 13.6083 10.9504 13.9031 11.0165 14.0668C11.0826 14.2306 11.0165 14.3288 10.8844 14.3943C10.7688 14.4598 10.7522 14.4271 10.6366 14.2142C10.521 14.0013 10.4219 13.7884 9.84388 13.7884C9.26583 13.7884 9.08416 13.9849 8.80339 14.2142C8.52262 14.4435 8.42352 14.5254 8.32443 14.3943C8.22534 14.2633 8.25837 14.1323 8.44004 13.9686C8.62171 13.8048 8.919 13.5428 9.19977 13.4282C9.48053 13.3135 9.62918 13.3299 9.89343 13.3299Z" fill="#FDFBF7"/>
<path d="M7.15098 15.1964C7.4813 15.4584 7.97677 15.6713 9.03378 15.6713C10.0908 15.6713 10.834 15.3765 11.1643 15.1309C11.313 15.0163 11.379 15.1145 11.3955 15.18C11.4121 15.2455 11.4451 15.3438 11.3295 15.4584C11.2469 15.5403 10.4872 16.0643 9.59532 16.1462C8.70346 16.2281 7.49781 16.2772 6.77112 15.6222C6.65551 15.5075 6.68854 15.3438 6.77112 15.2783C6.8537 15.2128 6.91976 15.1636 7.01886 15.1636C7.11795 15.1636 7.10143 15.1636 7.15098 15.1964Z" fill="#FDFBF7"/>
<path d="M3.10497 13.9523C4.36016 13.9359 4.59138 13.723 5.69794 13.2317C11.6767 10.5788 12.7832 8.1552 12.9979 7.59842C13.2126 7.04164 13.5264 6.14096 13.1961 5.14203C13.1323 4.94919 13.0859 4.79434 13.0523 4.66975C12.2578 3.78888 11.469 3.30822 11.2307 3.16055C10.3719 2.62014 9.5296 2.40726 8.70381 1.86685C8.19182 1.53933 7.48165 0.704164 6.88708 0C6.77147 1.12994 6.44115 1.60484 6.02826 1.91598C5.18595 2.57102 4.65745 2.76753 3.93075 3.16055C3.31967 3.48807 0 5.4368 0 9.66178C0 11.0107 0.365395 12.2461 0.992334 13.303L1.1561 13.2972C1.50294 13.6084 2.04796 13.9686 3.10497 13.9523Z" fill="#0073BA"/>
<path d="M6.96966 0.327148C7.20088 0.99856 7.16785 1.34245 7.16785 1.48984C7.16785 1.63722 7.08527 2.03024 6.82102 2.22675C6.70541 2.30863 6.67238 2.37414 6.67238 2.39051C6.67238 2.45602 6.82102 2.50514 6.82102 2.65253C6.82102 2.83266 6.73844 3.19293 5.86311 4.06085C4.98777 4.92878 3.73257 5.69844 2.75814 6.17335C1.78371 6.64825 1.32127 6.6155 1.18914 6.38623C1.05701 6.15697 1.23869 5.64932 1.84977 4.9779C2.46086 4.30649 4.3932 3.34031 4.3932 3.34031L6.8045 1.66997L6.93663 1.03131" fill="#93C5E4"/>
<path d="M6.96923 0.311523C6.82059 1.39233 6.49027 1.71985 6.04435 2.06375C5.30114 2.62053 4.57444 2.96442 4.40929 3.0463C3.97988 3.25919 2.42739 4.11073 1.61812 5.33893C1.37038 5.71557 1.61812 5.86296 1.66767 5.89571C1.71722 5.92846 2.27875 5.99396 3.4844 5.27342C4.69005 4.55288 5.21856 4.12711 5.89571 3.42295C6.25905 3.0463 6.3086 2.83341 6.3086 2.73516C6.3086 2.62053 6.22602 2.5714 6.0939 2.53865C6.02783 2.52227 6.01132 2.48952 6.0939 2.44039C6.17647 2.39126 6.52331 2.2275 6.60588 2.162C6.68846 2.0965 7.08484 1.83448 7.10136 1.40871C7.11787 0.982936 7.08484 0.688169 6.96923 0.311523Z" fill="#FDFBF7"/>
<path d="M3.2537 12.2168C3.27022 10.9395 4.47587 9.74402 5.99532 9.72764C7.92767 9.71127 9.26545 11.6272 10.2399 11.6109C11.0657 11.5945 12.6512 9.98966 13.4274 9.98966C14.2532 9.98966 14.4844 10.8412 14.4844 11.3489C14.4844 11.8565 14.3193 12.7736 13.9229 13.3467C13.5265 13.9199 13.2788 14.1328 12.8163 14.1C12.2218 14.0509 11.0326 12.2168 10.2729 12.184C9.31499 12.1513 7.23401 14.1655 5.59894 14.1655C4.608 14.1655 4.31071 14.0181 3.9804 13.8052C3.48493 13.4613 3.23719 12.9373 3.2537 12.2168Z" fill="#FDFBF7"/>
</g>
<defs>
<clipPath id="clip0_759_246">
<rect width="15" height="17" fill="white"/>
</clipPath>
</defs>
</svg>
