<svg width="17" height="17" viewBox="0 0 17 17" fill="none" xmlns="http://www.w3.org/2000/svg">
<g clip-path="url(#clip0_941_197)">
<path d="M16.6689 7.75128L9.25081 0.334077C8.824 -0.0931299 8.13117 -0.0931299 7.70381 0.334077L6.16353 1.87452L8.11733 3.82832C8.57154 3.67496 9.09216 3.77779 9.45405 4.13975C9.81782 4.50397 9.91991 5.02903 9.76271 5.48476L11.6458 7.36789C12.1014 7.21089 12.6271 7.31232 12.9908 7.67675C13.4994 8.1852 13.4994 9.00909 12.9908 9.51767C12.4822 10.0264 11.6583 10.0264 11.1493 9.51767C10.7669 9.13495 10.6723 8.57305 10.866 8.10187L9.10979 6.34565L9.10964 10.9671C9.23364 11.0285 9.35065 11.1104 9.45398 11.2133C9.96243 11.7217 9.96243 12.5454 9.45398 13.0547C8.94538 13.563 8.12112 13.563 7.61306 13.0547C7.10453 12.5455 7.10453 11.7217 7.61306 11.2133C7.73873 11.0879 7.88415 10.9929 8.03931 10.9293V6.26484C7.88407 6.20146 7.73883 6.10722 7.61297 5.98076C7.22778 5.59588 7.13502 5.03055 7.33256 4.55755L5.40649 2.63118L0.320506 7.71701C-0.106835 8.14455 -0.106835 8.83737 0.320506 9.26461L7.73817 16.6818C8.16523 17.109 8.85782 17.109 9.28547 16.6818L16.6688 9.29965C17.096 8.87224 17.096 8.1792 16.6688 7.75191" fill="#F05133"/>
</g>
<defs>
<clipPath id="clip0_941_197">
<rect width="17" height="17" fill="white"/>
</clipPath>
</defs>
</svg>
