<svg width="17" height="20" viewBox="0 0 17 20" fill="none" xmlns="http://www.w3.org/2000/svg">
<g clip-path="url(#clip0_937_44)">
<path d="M2.66748 8.7355C2.09221 9.00991 0.569628 10.2452 0.276374 10.6112C-0.0281757 10.9772 -0.118378 10.4053 0.197413 9.45603C0.445482 8.68974 1.07717 7.64891 2.13734 6.75684C2.75763 6.24215 4.1224 5.49876 4.95697 5.0641C5.12619 4.97257 7.31425 4.03473 9.26547 3.56581C9.43469 3.52005 9.06247 3.85173 9.00605 4.03473C8.71279 4.90395 2.85912 8.63252 2.85912 8.63252L2.66748 8.7355Z" fill="black"/>
<path d="M10.9124 19.2229C11.0139 19.8405 10.9237 19.8863 10.2921 19.9664C9.66044 20.0464 9.19802 19.8062 9.02886 19.6461C8.85964 19.4859 8.82586 19.1315 8.99502 18.8112C9.09658 18.6053 9.19808 18.5367 9.2545 18.2851C9.31087 18.0449 9.356 17.9877 9.40107 17.8962C9.44615 17.8161 9.4575 17.736 9.46874 17.1756C9.48003 16.6153 9.46874 15.563 9.52516 15.117C9.58159 14.6595 11.5328 15.3228 11.5328 15.3228C11.5328 15.3228 11.0703 16.4894 10.9463 16.7753C10.8222 17.0613 10.8335 17.6103 10.8335 17.7246C10.8335 17.839 10.7884 18.0677 10.7545 18.0792C10.7207 18.0906 10.8673 18.388 10.7996 18.5596C10.7545 18.7197 10.9011 19.1315 10.9124 19.2229Z" fill="black"/>
<path d="M11.6564 1.73569C11.5887 1.30108 11.6564 0.443197 11.7466 0.30602C12.0286 -0.0828848 13.5174 -0.128592 13.8332 0.328873C13.9686 0.534724 13.9573 1.0151 13.9347 1.32393C13.9122 1.63271 13.8332 2.29608 13.8219 2.51344C13.8107 2.67359 12.1753 2.92514 11.8143 2.49053C11.7128 2.37621 11.6564 1.73569 11.6564 1.73569Z" fill="black"/>
<path d="M14.9723 18.1143C15.6603 18.6176 16.1904 18.7091 16.54 18.8921C16.8897 19.0751 16.7995 19.4297 16.2129 19.5326C15.7392 19.624 14.9949 19.4411 14.4986 19.4411C14.0024 19.4411 12.897 19.4983 12.6038 19.2924C12.2654 19.0523 12.412 18.6061 12.412 18.6061C12.5023 18.3546 12.7278 17.7941 12.6601 17.3366C12.5925 16.8791 12.5022 16.6275 12.333 16.2043C12.1639 15.7812 12.0398 14.7404 12.1978 14.6832C12.3557 14.626 12.3105 14.6832 12.5136 14.7289C12.7165 14.7746 12.9421 14.8433 13.382 14.8433C13.8219 14.8433 14.3069 14.7746 14.4761 14.7403C14.6452 14.706 14.7806 14.6717 14.7241 15.0263C14.6678 15.3808 14.4986 16.0442 14.4873 16.5589C14.4761 17.0735 14.4761 17.6683 14.5099 17.7712C14.5437 17.8741 14.7919 17.9885 14.9723 18.1143Z" fill="black"/>
<path d="M12.5593 2.87925C11.3187 3.96584 8.9163 4.26316 5.3523 5.65852C4.4387 6.01306 2.00252 7.07674 1.41602 8.18618C3.38978 7.03103 4.12291 8.62079 4.28078 10.2563C4.42735 11.7889 5.18308 12.5896 7.123 12.5437C9.11936 12.498 9.7284 13.676 10.281 15.06C11.3525 9.76448 13.0669 8.73517 14.1721 7.83164C16.5181 5.89868 13.6308 2.49035 12.5593 2.87925Z" fill="#88CE02"/>
<path d="M12.5589 2.87891C9.58131 3.93113 6.63753 4.1942 3.17502 6.35585C2.35168 6.87054 0.61475 8.03708 0.276367 10.2674C1.53953 8.84914 4.46072 7.06499 8.03608 5.9327C9.84067 5.3608 11.1603 4.9834 12.7619 4.35434C12.6491 3.62229 12.6491 3.33637 12.5589 2.87891Z" fill="#88CE02"/>
<path d="M16.3593 9.14686C16.3593 9.14686 16.145 9.8903 15.7164 10.1305C15.7164 10.1305 15.4007 10.2449 14.7691 9.89036C14.5886 9.78743 14.4533 9.43289 14.4645 9.31846C14.4758 9.04393 14.645 8.91816 14.645 8.91816C14.645 8.91816 14.8255 8.60932 15.0397 8.62078C15.2541 8.63218 15.615 8.66648 15.7278 8.56356C15.8292 8.44918 16.3819 8.76941 16.3593 9.14686Z" fill="black"/>
<path d="M11.758 1.95312C11.758 1.95312 11.7129 2.53647 11.6339 2.90241C11.6226 2.97108 11.2843 3.00534 11.0361 3.10832C11.5098 4.48077 14.3634 4.46931 14.7356 3.79454C14.5551 3.66876 14.1942 3.47431 14.025 3.4057C13.8558 3.33702 13.8671 3.34848 13.8558 3.02825C13.8446 2.70796 13.822 2.11326 13.7994 1.95312C13.7769 1.79297 12.0286 1.79297 11.758 1.95312Z" fill="black"/>
<path d="M11.8711 1.95325C11.8711 1.95325 11.8711 2.28494 11.8373 2.60517C11.8261 2.75386 11.8148 2.84533 11.7922 2.95971C11.7809 3.02838 12.1757 3.30279 12.2885 3.909C12.8299 5.13277 14.0818 4.52661 14.6006 3.94331C14.4202 3.81748 14.1269 3.64593 13.7886 3.5087C13.6194 3.44003 13.6983 3.29139 13.6871 2.97116C13.6758 2.65093 13.6307 2.18196 13.6081 2.01041C13.5855 1.83887 12.1419 1.79311 11.8711 1.95325Z" fill="#EFEFEF"/>
<path d="M11.758 1.95312C11.758 1.95312 11.7467 2.15902 11.7129 2.39918C11.8595 2.54781 12.0512 2.75372 12.1979 2.87956C12.2994 2.97108 12.5475 2.95963 12.7731 2.95963C12.9761 2.95963 13.1566 2.98248 13.2355 2.93678C13.416 2.84525 13.6754 2.61654 13.822 2.44495C13.8108 2.23909 13.7995 2.04464 13.7883 1.95312C13.7769 1.79297 12.0286 1.79297 11.758 1.95312Z" fill="black"/>
<path d="M12.7846 2.82285C12.6492 2.82285 12.4913 2.81145 12.3673 2.78854C12.3109 2.77714 12.2545 2.74284 12.2094 2.71993C12.1304 2.66271 12.0514 2.59415 11.9613 2.52547C11.7808 2.38824 11.7695 2.30817 11.7695 2.27392C11.8485 1.55333 11.7469 0.947172 11.7469 0.947172C11.7469 0.947172 11.668 0.638339 12.0966 0.558267C12.5251 0.478196 12.7846 0.466797 12.7846 0.466797C12.7846 0.466797 13.0553 0.466797 13.4726 0.558267C13.9012 0.638339 13.8222 0.947172 13.8222 0.947172C13.8222 0.947172 13.7207 1.55333 13.7997 2.27392C13.7997 2.30817 13.7884 2.38824 13.6079 2.52547C13.45 2.63985 13.3259 2.76563 13.2019 2.78854C13.0778 2.81145 12.9199 2.82285 12.7846 2.82285Z" fill="black"/>
<path d="M12.7847 0.168945C12.0403 0.168945 11.8937 0.374796 11.6794 0.603557C11.6343 0.660719 11.6681 1.00386 11.7471 1.73585H11.8486C11.8486 1.73585 11.7809 1.52994 11.7922 1.28978C11.8035 1.04962 11.8486 1.06108 11.8147 1.00386C11.7696 0.935187 11.6794 0.820807 11.8824 0.706482C12.0854 0.592102 12.4012 0.797953 12.7847 0.809408C13.1682 0.797953 13.4953 0.592102 13.6983 0.706482C13.9013 0.820807 13.8111 0.935187 13.766 1.00386C13.7209 1.07248 13.7772 1.04957 13.7885 1.28978C13.7998 1.52994 13.7321 1.73585 13.7321 1.73585H13.8336C13.9013 1.00386 13.9464 0.683629 13.9126 0.62641C13.7208 0.374796 13.5291 0.180344 12.7847 0.168945Z" fill="black"/>
<path d="M16.3598 9.18113C16.3598 9.18113 16.1455 9.87881 15.7283 10.119C15.638 10.0733 15.6493 10.0046 15.5703 9.90167C15.5477 9.86741 15.4688 9.84445 15.435 9.8102C15.4012 9.77589 15.4125 9.71867 15.356 9.67296C15.3109 9.6272 15.2771 9.66151 15.2319 9.6272C15.1869 9.58149 15.1755 9.52427 15.1417 9.49002C15.1192 9.46711 15.0289 9.45571 15.0064 9.4328C14.95 9.37558 14.4538 9.27266 14.4763 9.15828C14.5214 8.98668 14.6117 8.8609 14.6117 8.8609C14.6117 8.8609 14.826 8.54067 15.0402 8.55207C15.2545 8.56352 15.4575 8.60929 15.5703 8.50636C15.6944 8.39193 16.3937 8.81514 16.3598 9.18113Z" fill="black"/>
<path d="M14.8938 4.12634C14.8938 4.12634 15.6043 3.95475 16.0893 4.42372C16.5743 4.9041 16.5405 5.4988 16.3939 5.86479C16.5179 6.01348 16.7435 6.42518 16.5743 6.91701C17.3187 7.55747 16.9916 8.54113 16.3262 9.19305C16.3262 9.19305 16.1683 8.5983 15.5367 8.56399C15.5593 8.33528 14.9502 8.15223 15.2322 7.55747C14.8036 7.45455 14.8149 7.15717 14.7472 6.79123C14.6908 6.42518 14.8938 4.12634 14.8938 4.12634Z" fill="black"/>
<path d="M14.634 4.44661C14.634 4.44661 15.4574 4.02345 15.9424 4.50383C16.4273 4.9842 16.292 5.51029 16.1454 5.87628C16.2694 6.02491 16.5627 6.44818 16.3822 6.95135C16.3484 7.06574 16.1003 7.06574 15.9197 7.36311C16.3709 7.09999 16.6529 7.16866 16.7544 7.50029C16.9123 8.01497 16.5626 8.63258 16.2581 8.97572C16.2581 8.96427 16.2468 8.95281 16.2468 8.94142C16.2018 9.11301 16.1453 9.44464 15.807 9.81064C15.6378 9.99364 15.5025 9.97078 15.3107 9.92502C15.0852 9.8678 15.0062 9.76482 14.6904 9.59333C14.51 9.49041 14.6115 9.36457 14.6115 9.26165C14.6115 9.23879 14.634 9.20443 14.6679 9.15872C14.6904 9.1015 14.7581 9.01009 14.8596 8.90711C14.8596 8.90711 15.0062 8.70126 15.2206 8.71265C15.4348 8.72411 15.6604 8.6784 15.7168 8.62118C15.7168 8.22088 15.2657 8.20943 15.4235 7.5232C15.4348 7.48889 15.4913 7.43167 15.6717 7.40882C15.401 7.3516 15.2769 7.34015 15.0852 7.15721C14.9498 7.03143 14.8483 6.87128 14.8144 6.66543C14.7468 6.31089 14.634 4.44661 14.634 4.44661Z" fill="#EFEFEF"/>
<path d="M12.2545 3.72639C12.1868 3.63487 11.8372 3.1774 11.1718 2.9944C10.98 2.93719 10.856 3.09733 10.6643 3.21171C10.6078 3.1774 10.3597 3.06302 10.2244 3.14304C10.089 3.22305 9.99885 3.30318 9.86346 3.36034C9.79574 3.32603 9.61534 3.32603 9.46871 3.3832C9.32208 3.42896 9.09649 3.53189 8.8822 3.82926C8.74687 4.32109 11.2733 3.95504 11.2733 3.95504L12.2545 3.72639Z" fill="black"/>
<path d="M12.2774 3.72576C11.9164 3.59993 11.9728 3.17677 11.172 3.10815C11.0141 3.0967 10.9126 3.22248 10.7998 3.30255C10.8562 3.35977 10.9126 3.45124 10.9464 3.54271C10.8449 3.42838 10.6645 3.27964 10.484 3.24533C10.3148 3.21108 10.202 3.33686 10.0216 3.42838C10.0553 3.46264 10.0892 3.51985 10.1343 3.58853C9.97637 3.4856 9.86363 3.45129 9.64934 3.53131C9.50271 3.57702 9.22075 3.70285 9.00646 4.01168C8.87113 4.50351 11.2848 3.95447 11.2848 3.95447L12.2774 3.72576Z" fill="#88CE02"/>
<path d="M14.3975 3.90851C14.3975 3.90851 14.3975 3.78267 14.3862 3.66835C14.3862 3.6455 14.296 3.58828 14.296 3.56542L14.2734 3.54251C14.2734 3.54251 14.4539 3.43959 14.5892 3.49681C14.7358 3.54251 14.8148 3.73697 14.8148 3.73697C15.0742 3.6455 15.0967 3.74842 15.2208 3.88565C15.4915 3.82844 15.5253 3.93136 15.6945 4.18303C15.6945 4.18303 15.4915 4.14872 15.0968 4.21728C14.7133 4.27445 14.3975 3.89705 14.3975 3.90851Z" fill="black"/>
<path d="M14.3518 3.85156C14.3518 3.85156 14.4195 3.79434 14.3969 3.78289C14.5209 3.71427 14.6901 3.63425 14.7691 3.85156C15.0285 3.76003 15.0624 3.88587 15.1864 4.02316C15.5022 3.87447 15.5247 4.05741 15.5473 4.13748C15.4458 4.13748 15.2992 4.14894 15.0962 4.17179C14.7127 4.22901 14.3405 3.84011 14.3518 3.85156Z" fill="#88CE02"/>
<path d="M10.5172 3.56543C10.5172 3.56543 11.1601 3.79413 11.7015 3.75983C12.2429 3.71412 13.1677 3.66836 13.6639 3.96573C13.6639 3.96573 14.1715 3.78268 14.6452 3.90851C15.119 4.03429 15.9874 4.85781 15.728 5.72703C15.7054 5.78425 15.5588 5.87572 15.3896 5.93294C15.3896 5.93294 15.4799 6.32179 15.322 6.64202C15.164 6.95085 14.8144 7.54561 14.8031 8.36907C14.7919 8.5063 14.7694 8.79222 14.7468 8.92946C13.867 8.8952 12.5136 8.56346 11.1827 8.58637C11.1939 8.43774 11.2052 8.34621 11.2165 8.19752H11.2503C11.1826 7.82007 11.1601 7.62562 11.0924 7.3397C10.6638 7.06523 10.2126 6.745 9.82922 6.13879C9.45701 5.53258 10.5172 3.56543 10.5172 3.56543Z" fill="black"/>
<path d="M14.8713 9.74219C14.8713 9.74219 15.5706 12.2813 14.7473 13.345C14.7473 13.345 14.8713 13.8367 14.5894 14.3629C14.5442 14.5916 14.4878 14.7975 14.454 15.0262C14.3074 15.9755 14.0592 16.3758 13.9916 17.8969L13.3148 17.8855C13.3148 17.8855 13.2358 16.7876 12.999 16.2043C12.8637 15.8726 12.3335 15.4265 12.3562 14.9805C12.3787 14.6374 12.4464 14.3514 13.0216 13.8939C13.0667 13.2306 12.4125 12.6015 12.5141 10.131L14.8713 9.74219Z" fill="black"/>
<path d="M14.6684 9.63867C14.8489 10.8053 15.2662 12.5323 14.5105 13.3786C14.5443 13.5388 14.5669 13.7675 14.5218 14.0306C14.4992 14.1678 14.4541 14.3165 14.3977 14.4766C14.2849 14.7511 14.2398 15.1514 14.206 15.3915C14.0593 16.3408 14.0593 16.3867 13.9917 17.9078L13.3149 17.8963C13.3149 17.8963 13.236 16.7984 12.9991 16.2151C12.8638 15.8834 12.5818 15.5975 12.5593 15.1514C12.5368 14.8084 12.7736 14.1221 13.3376 14.145C13.3037 12.7611 12.6721 13.0355 12.5029 10.1534L14.6684 9.63867Z" fill="#EFEFEF"/>
<path d="M10.5178 3.56543C10.5178 3.56543 10.766 3.6455 11.0366 3.66836C11.3073 3.69121 11.6006 3.66836 11.8599 3.6569C12.4013 3.61119 13.1683 3.55398 13.6758 3.85135C13.6758 3.85135 13.9578 3.75983 14.2623 3.78268C14.3977 3.79413 14.5331 3.90851 14.6909 3.95428C15.1872 4.08006 15.6609 4.91497 15.4466 5.66987C15.424 5.72709 15.2661 5.66987 15.0856 5.72709C15.1194 5.88723 15.1421 6.25323 14.9615 6.64208C14.7698 7.03098 14.5217 7.53421 14.5668 8.49496C13.3825 8.43774 12.8524 8.35772 11.6794 8.30051C11.5779 7.87729 11.5102 7.45414 11.499 7.23683C11.6569 7.15676 11.747 7.0882 11.8712 6.95091C11.5329 7.00813 11.3975 6.98522 11.1944 6.87084C10.9914 6.75646 10.6305 6.39046 10.45 6.1503C10.4275 6.12739 10.3035 6.50479 10.0215 6.5163C9.91997 6.36761 10.3486 5.94439 10.2696 5.78431C9.98769 5.20095 10.5178 3.56543 10.5178 3.56543Z" fill="#EFEFEF"/>
<path d="M14.7578 8.69015C14.7578 8.69015 14.7804 9.10191 14.7804 9.20484C14.7804 9.31922 14.8706 9.6623 14.8819 9.82245C14.7578 10.0398 14.2165 10.5316 13.2352 10.7146C12.2652 10.9204 10.9795 9.37644 10.9795 9.37644C11.0133 9.22775 11.1261 8.79308 11.2051 8.56438C11.2164 8.54152 11.2389 8.4843 11.2389 8.46145C11.3405 8.31276 14.7578 8.69015 14.7578 8.69015Z" fill="black"/>
<path d="M14.5101 8.72432C14.5101 9.01025 14.5552 9.21615 14.5891 9.39915C14.6454 9.73084 14.7356 9.94814 14.7356 10.1654C14.7356 10.8288 13.8785 10.7144 13.1566 10.7373C12.1866 10.9432 11.3633 9.39915 11.3633 9.39915C11.4309 9.13608 11.4761 8.83876 11.5776 8.58709C11.5888 8.44986 11.6114 8.27831 11.6226 8.19824C12.9987 8.19824 13.9686 8.27831 14.5326 8.33542C14.5552 8.46126 14.5326 8.67856 14.5101 8.72432Z" fill="#EFEFEF"/>
<path d="M13.427 10.1992C13.427 10.1992 12.8293 8.84965 11.0359 9.25001C10.6074 10.4738 10.0321 11.8806 10.4043 13.4017C10.0321 13.9164 9.60352 14.2024 9.60352 15.1516C9.60352 16.1009 9.64864 16.2611 9.64864 16.2611L10.9682 16.3297C10.9682 16.3297 11.3968 15.7694 11.566 15.1631C11.6111 14.9915 11.6562 14.6828 11.6224 14.3282C11.6675 14.2596 11.8592 14.0995 11.8818 13.7907C11.8818 13.7907 12.5247 13.4476 12.8969 12.6127C13.2466 11.8577 13.1563 11.2058 13.427 10.1992Z" fill="black"/>
<path d="M13.4276 10.1993C13.3939 10.0735 12.9427 8.83829 11.2734 9.20422C10.2922 11.8577 10.6531 12.9557 10.7997 13.436C10.1342 14.2938 9.82975 14.4768 9.96514 16.2153H10.8449C11.2509 15.5634 11.3412 15.3231 11.3637 14.4654C11.3637 14.4311 11.2397 14.534 11.1494 14.6484C11.2171 14.2938 11.4088 14.2252 11.5554 14.0079C11.6231 13.9164 11.6795 13.7792 11.6795 13.5962C12.469 13.0586 12.7622 12.3838 12.9314 11.6861C13.0668 11.2058 13.2247 10.4166 13.4276 10.1993Z" fill="#EFEFEF"/>
<path d="M10.641 8.3584C10.641 8.3584 10.9456 8.3698 11.2163 8.46132C11.4757 8.55279 11.4757 8.60996 11.5772 8.72439C11.6787 8.83883 11.9268 9.01032 11.8818 9.18186C11.8592 9.27338 11.8028 9.29624 11.7239 9.37631C11.69 9.41062 11.4418 9.68509 11.3855 9.71939C11.3516 9.74225 11.3065 9.77661 11.2727 9.79947C11.2389 9.82232 11.1374 9.89099 11.1035 9.91385C10.9907 9.97107 10.9118 10.0054 10.7877 9.99392C10.7877 9.99392 10.5058 9.98246 10.3252 9.78807C10.3252 9.78807 10.3027 9.69654 10.3478 9.65083C10.3478 9.65083 10.111 9.44493 10.0433 9.30769C9.97557 9.17052 9.97557 8.97606 10.0208 8.87314C10.0433 8.7701 10.4831 8.48418 10.641 8.3584Z" fill="black"/>
<path d="M10.9239 19.4869L10.8901 19.7729C10.8901 19.7729 10.7886 19.8987 10.0329 19.8873C9.26593 19.8758 9.06293 19.6356 8.99527 19.5098L8.9502 19.2124C8.9502 19.2124 9.09682 18.9951 9.13066 18.9951C9.37878 19.018 10.2247 19.3611 10.8112 19.4526C10.8675 19.4526 10.8787 19.4754 10.9239 19.4869Z" fill="black"/>
<path d="M12.5591 18.9028C12.5591 19.0286 12.5479 19.0286 12.5479 19.1544C12.6832 19.2573 13.0216 19.3146 13.6644 19.303C14.6006 19.2802 15.469 19.589 16.5292 19.406L16.5405 19.2001L16.439 19.1887L12.6832 18.8799L12.5591 18.9028Z" fill="black"/>
<path d="M13.3821 19.3032C13.4724 19.3032 13.5626 19.3032 13.6641 19.3032C14.2732 19.2804 14.8484 19.4176 15.4687 19.4519C15.7958 19.4405 16.2018 19.3604 16.168 19.1202L12.9648 18.8457C12.7731 19.063 12.9197 19.246 13.3821 19.3032Z" fill="black"/>
<path d="M9.70576 14.4883C9.80726 14.5569 10.4953 14.9687 11.6119 14.9114C11.5893 15.1287 11.6006 15.552 11.1043 16.2953C10.8562 16.6613 10.6418 17.3019 10.5968 18.1139C10.6081 18.2969 10.7096 18.457 10.5742 18.6972C10.6193 18.8459 10.7998 19.1432 10.89 19.3262C10.9802 19.5093 11.0253 19.7151 10.4275 19.7266C9.8185 19.738 8.83724 19.6694 8.97263 19.189C9.04035 18.9374 9.23205 18.6744 9.25464 18.5714C9.27718 18.4685 9.27717 18.1597 9.46887 17.9538C9.63809 17.3819 9.58167 16.8329 9.54789 16.3183C9.49147 15.7807 9.48017 14.9229 9.70576 14.4883Z" fill="black"/>
<path d="M10.7541 5.16687C11.5549 4.08028 10.8781 3.21111 9.59242 3.47413C9.07358 3.57705 8.5548 3.9431 8.52091 4.60642C8.35174 4.62927 7.96829 4.65213 7.77653 5.36126C7.62996 5.91025 7.551 6.01318 7.29152 6.28765C7.12236 6.4821 7.30282 6.8824 7.42685 7.16838C7.8442 8.15199 9.12995 8.24346 9.99842 8.9869C10.2917 8.90683 10.5962 8.5752 10.6864 8.35789C9.95329 7.47716 10.1112 7.13407 9.8179 6.67661C10.1337 6.56217 10.8556 6.11616 10.7541 5.16687Z" fill="black"/>
<path d="M10.5964 5.09857C10.6415 5.0299 10.7205 4.88127 10.7544 4.82405C10.7657 4.81259 10.8897 5.0299 10.901 5.0185C11.2055 4.51522 11.2845 3.78323 10.9348 3.71461C10.8558 3.70316 10.7092 3.6689 10.5851 3.62308C10.3596 3.54301 10.1566 3.54301 9.79565 3.61169C9.2994 3.70316 8.80315 4.06915 8.80315 4.59529C8.80315 4.6296 9.15271 4.73252 9.25427 5.15574C9.08505 4.91552 8.79179 4.65245 8.44217 4.88121C8.06995 5.12137 8.26171 5.67036 7.76546 6.24221C7.59624 6.43666 7.61883 6.66542 7.79924 7.12289C8.09249 7.84348 9.4798 8.23233 10.2355 8.91855C10.4159 8.83848 10.54 8.65548 10.6302 8.51825C10.1227 7.98071 9.91963 7.47743 9.77305 7.11143C9.59259 6.68828 9.38954 6.44812 8.99479 6.12777C9.19784 6.20784 9.35576 6.28792 9.44591 6.35653C9.54741 6.42515 9.69404 6.4366 9.82942 6.39084C10.3145 6.21941 10.5739 5.53313 10.5964 5.09857Z" fill="#EFEFEF"/>
<path d="M15.5029 5.28174C15.4691 5.71635 15.1533 5.49905 14.9841 5.41897C14.6457 5.27029 14.3074 5.16736 13.9126 5.16736C13.5179 5.16736 13.0103 5.20167 12.5705 5.31605C11.9614 5.48759 11.7809 5.47619 11.5103 5.3389C11.2396 5.19021 10.7659 4.82422 10.7659 4.82422C10.7659 4.82422 10.7546 4.9386 10.8674 5.08729C11.014 5.27029 11.3412 5.49905 11.781 5.64768C11.9953 5.71635 12.1645 5.67053 12.3562 5.62483C13.36 5.37321 14.4202 5.32745 15.3112 5.87644C15.3563 5.89929 15.5143 5.83068 15.5819 5.72775C15.6721 5.57912 15.5029 5.28174 15.5029 5.28174Z" fill="black"/>
<path d="M10.3711 9.63867C10.4613 9.69589 10.5741 9.7302 10.6981 9.83312C10.6981 9.83312 10.5966 9.83312 10.5516 9.78742C10.4951 9.75311 10.3823 9.65018 10.3711 9.63867Z" fill="#001423"/>
<path d="M13.6299 0.569182C13.5961 0.466257 13.3479 0.283203 12.7728 0.283203C12.1524 0.283203 11.972 0.477655 11.9607 0.580581C11.9607 0.614889 11.9156 0.98094 11.9043 1.12957C11.9043 1.12957 11.9043 1.31257 11.9155 1.58704C11.9268 1.77004 11.972 1.87296 11.9945 2.11318C12.017 2.36473 12.0848 2.52488 12.2088 2.73078C12.2652 2.76504 12.3103 2.7994 12.3667 2.81086C12.5923 2.85656 12.9871 2.86802 13.2013 2.81086C13.3254 2.77655 13.4833 2.55924 13.5171 2.36479C13.5622 2.12463 13.6073 1.95303 13.6186 1.8044C13.6412 1.65577 13.6525 1.32402 13.6637 1.2325C13.6976 0.98094 13.6412 0.592036 13.6299 0.569182Z" fill="#EFEFEF"/>
<path d="M12.4464 14.7061C12.4464 14.7061 13.0442 14.9691 14.5217 14.7404C14.5217 14.7404 14.1044 16.8677 14.2961 17.9313C14.2961 17.9313 14.4878 18.2059 15.909 18.7319C15.909 18.7319 16.5406 18.8921 16.518 19.2124C16.518 19.2124 16.5406 19.281 15.7736 19.2581C15.0067 19.2352 14.2848 19.0979 13.7773 19.0979C13.2698 19.0979 12.7284 19.1208 12.6382 18.9722C12.5367 18.8349 12.6607 18.4803 12.8073 18.2744C12.9653 18.0572 12.9201 17.897 12.9089 17.5082C12.8749 16.4903 12.108 15.438 12.4464 14.7061Z" fill="black"/>
<path d="M12.3219 14.9004C12.2429 15.0148 12.3331 15.4494 12.4459 15.8726C12.5587 16.2957 12.8069 16.5474 12.8632 17.245C12.9196 17.9312 12.9309 18.0228 12.7391 18.423C12.5474 18.8233 12.491 19.1893 13.1564 19.2008C13.8218 19.2122 14.1828 19.1893 14.8595 19.2923C15.5363 19.3952 15.7731 19.4295 16.1453 19.3724C16.5176 19.3152 16.5965 19.1893 16.4386 19.075C16.2807 18.9606 15.6265 18.8348 15.3445 18.606C15.0738 18.4002 14.3069 18.057 14.2957 17.9656C14.2618 17.6567 14.2505 16.5359 14.3069 16.1699C14.3633 15.8038 14.4422 15.2778 14.4648 15.1405C14.4874 15.0033 14.6002 14.866 14.4084 14.9118C14.2167 14.9575 13.4949 15.0604 12.9535 15.0261C12.4121 14.9919 12.3557 14.8661 12.3219 14.9004Z" fill="#88CE02"/>
<path opacity="0.3" d="M12.7055 18.4346C12.8972 18.526 13.1792 18.5947 13.3935 18.5947C13.3935 18.5947 13.3145 18.9722 13.4386 19.2009C13.5626 19.4296 12.5363 19.2924 12.5363 19.2924L12.4912 18.4803L12.7055 18.4346Z" fill="black"/>
<path opacity="0.3" d="M15.6939 19.4176C15.8744 19.3603 15.9985 19.1545 15.8519 18.9601C15.6939 18.7656 15.5586 18.7313 15.7616 18.7199C15.9647 18.7085 16.709 19.1659 16.709 19.1659L16.3255 19.5205L15.6939 19.4176Z" fill="black"/>
<path opacity="0.3" d="M12.2882 15.3466C12.5476 15.4381 12.9423 15.461 13.2807 15.4495C13.619 15.4381 14.1266 15.3923 14.4537 15.278C14.7808 15.1636 14.6454 15.4037 14.6454 15.4037L14.465 15.5753C14.465 15.5753 14.0364 15.7469 13.3371 15.7355C12.5138 15.724 12.2656 15.6325 12.2656 15.6325L12.2882 15.3466Z" fill="black"/>
<path opacity="0.3" d="M12.3105 15.9182C12.57 16.0097 12.9647 16.0326 13.3031 16.0211C13.6414 16.0097 14.0926 16.0097 14.4197 15.8839C14.555 15.8382 14.4761 16.0326 14.4761 16.0326L14.4197 16.1355C14.4197 16.1355 13.9798 16.2957 13.2918 16.2842C12.4685 16.2728 12.3218 16.2041 12.3218 16.2041L12.3105 15.9182Z" fill="black"/>
<path d="M11.5664 7.90039C11.5664 7.98046 12.4462 8.42647 12.9311 8.518C13.4161 8.60947 14.4312 8.518 14.5891 8.48369L14.5665 8.64383C14.5665 8.64383 13.3597 8.82683 12.4349 8.57522C11.51 8.3236 11.6115 8.26639 11.6115 8.26639L11.5664 7.90039Z" fill="black"/>
<path d="M9.68262 17.6566C9.81795 17.7253 10.303 17.851 10.6187 17.7824C10.6638 17.771 10.6187 16.9932 10.7428 16.6387C10.9233 16.1469 11.2166 15.7466 11.3518 14.8774C10.8781 14.8316 10.3368 14.7058 10.0548 14.6143C9.69391 15.7352 9.818 16.6958 9.68262 17.6566Z" fill="#EFEFEF"/>
<path d="M10.4384 18.3774C10.5173 18.4003 10.5737 18.4918 10.5963 18.4347C10.6414 18.3317 10.5173 18.1373 10.506 18C10.506 17.9886 10.506 18 10.506 17.9886C10.4045 17.8971 9.71652 17.8857 9.76165 17.9314C9.68269 18.0801 9.55865 18.0572 9.51358 18.3546C9.49104 18.5032 9.6715 18.3774 9.84061 18.366C9.53612 18.5718 9.18649 18.835 9.13007 19.0637C9.0624 19.3839 9.1752 19.4754 9.51358 19.647C9.80683 19.7156 10.1565 19.7271 10.4271 19.7156C10.7317 19.6584 10.7881 19.5098 10.6978 19.3039C10.5624 18.9951 10.4722 18.5947 10.4384 18.3774Z" fill="#EFEFEF"/>
<path d="M10.5623 3.52051C10.9345 3.73781 11.4534 3.68065 11.6451 3.6692C11.6902 3.6692 12.1414 3.58912 12.1639 3.60052C12.209 3.61198 12.209 3.64629 12.209 3.64629C12.209 3.64629 12.0398 3.73776 11.6564 3.76061C11.2955 3.78346 10.8669 3.76061 10.63 3.64629C10.348 3.52051 10.5623 3.52051 10.5623 3.52051Z" fill="black"/>
<path d="M14.3969 3.73722C14.4646 3.78292 14.9044 3.95452 15.0962 4.16037C15.2654 4.34343 15.1752 4.33197 15.1413 4.28621C15.0962 4.22899 14.7465 3.98883 14.6112 3.93167C14.4759 3.87451 14.3066 3.77153 14.3066 3.74867C14.3066 3.72582 14.3969 3.73722 14.3969 3.73722Z" fill="black"/>
<path d="M10.506 8.48421C10.8331 8.46136 11.1715 8.54143 11.3858 8.77014C11.4986 8.88452 11.679 9.0103 11.6565 9.12468C11.6565 9.15899 11.5888 9.25051 11.5325 9.31913C11.4986 9.36484 11.3971 9.46776 11.3633 9.50213C11.3182 9.53643 11.1603 9.66227 11.1264 9.68512C11.0926 9.70803 11.0475 9.76525 11.0136 9.77665C10.9009 9.83387 10.7768 9.78811 10.664 9.73094C10.5513 9.67372 10.6866 9.66227 10.5625 9.5708C10.258 9.35349 10.0888 9.20475 10.2129 8.78159C10.2241 8.70152 10.3482 8.60999 10.506 8.48421Z" fill="#EFEFEF"/>
<path opacity="0.4" d="M7.62986 5.865C6.61477 6.27675 4.03191 7.58065 3.29883 7.98095C3.90787 8.3698 4.18983 9.30764 4.28009 10.2569C4.29133 10.3485 4.30262 10.4285 4.31392 10.52C4.32516 10.6001 4.33646 10.6572 4.3477 10.6916C4.3477 10.7031 4.3477 10.7259 4.35899 10.7373C5.02446 8.89594 7.40422 6.95158 7.49447 6.80289C7.53955 6.73428 7.43805 6.4369 7.59597 6.15103C7.79902 5.78492 8.19383 5.62478 7.62986 5.865Z" fill="black"/>
<path opacity="0.4" d="M10.0433 14.4996C10.562 13.4474 10.5733 12.4409 10.562 11.2628C10.562 10.771 10.9117 10.0733 10.7313 10.2677C10.0545 11.034 8.35146 12.4752 7.12207 12.5552C8.84771 12.498 9.52442 13.3787 10.0433 14.4996Z" fill="black"/>
<path d="M2.30664 8.95236C2.94952 8.48344 6.27675 6.68783 7.07755 6.43616C7.8783 6.17309 7.63017 5.86426 7.63017 5.86426C7.63017 5.86426 4.3819 7.28247 2.44197 8.50629" fill="black"/>
<path opacity="0.4" d="M11.781 5.64768C11.5216 5.54475 11.3186 5.85359 11.3862 6.15096C11.4539 6.44834 12.063 6.77997 12.0291 7.86656C12.0066 8.75869 11.8148 9.12463 11.8148 9.12463L11.3862 8.57569C11.3862 8.57569 11.3186 7.34042 11.1719 7.15742C11.0254 6.97442 10.5629 6.64274 10.3824 6.47119C10.202 6.2996 10.5854 6.07089 10.5629 5.7506C10.5404 5.44183 10.7546 4.82422 10.7546 4.82422L11.781 5.64768Z" fill="black"/>
<path opacity="0.4" d="M13.3488 10.5195C13.3263 11.3773 13.518 12.6469 13.5969 13.2531C13.6759 13.8592 13.7774 13.905 13.5969 14.1795C13.4165 14.4426 13.1796 14.8772 13.1796 14.8772L12.4014 14.8085C12.4014 14.8085 13.0217 14.0079 13.0555 13.8592C13.0893 13.7106 12.7397 12.5783 12.7397 12.5783L13.3488 10.5195Z" fill="black"/>
<path opacity="0.4" d="M11.8486 2.5134C12.0066 2.86789 12.1983 3.02803 12.5028 3.13101C12.6832 3.19963 13.3938 3.29115 13.6758 2.97087C13.7998 2.82218 13.7208 2.42188 13.7208 2.42188L13.078 2.94796L12.2095 2.78787L12.108 2.5248L11.8486 2.5134Z" fill="black"/>
<path d="M11.9164 3.30273C12.2096 3.49719 12.9428 3.68018 13.1458 3.71449C13.3488 3.7602 13.6758 3.49719 13.8338 3.42857C14.003 3.3485 14.2962 3.30273 14.6346 3.61157C14.6684 3.64588 14.5556 3.79456 14.5556 3.79456C14.5443 3.78311 14.4766 3.78311 14.3864 3.73735C14.2962 3.69164 14.2172 3.65727 14.0819 3.66873C13.5179 3.73735 13.4277 3.9318 12.9315 3.81736C12.4352 3.70293 12.3111 3.61151 11.8262 3.63436" fill="#88CE02"/>
<path d="M11.9164 3.30273C12.2096 3.49719 12.9428 3.68018 13.1458 3.71449C13.3488 3.7602 13.6758 3.49719 13.8338 3.42857C14.003 3.3485 14.2962 3.30273 14.6346 3.61157C14.6684 3.64588 14.5556 3.79456 14.5556 3.79456C14.5443 3.78311 14.4766 3.78311 14.3864 3.73735C14.2962 3.69164 14.2172 3.65727 14.0819 3.66873C13.5179 3.73735 13.4277 3.9318 12.9315 3.81736C12.4352 3.70293 12.3111 3.61151 11.8262 3.63436" stroke="black" stroke-width="1.586" stroke-linejoin="round"/>
<path d="M11.8144 3.33691C12.1866 3.49706 12.9085 3.6686 13.1115 3.71436C13.3145 3.76013 13.6416 3.55422 13.7995 3.45129C14.0815 3.2683 14.4424 3.41699 14.6116 3.61144C14.7243 3.73722 14.7695 3.81729 14.7695 3.8516C14.7695 3.8973 14.6342 3.8516 14.6342 3.8516C14.5552 3.81729 14.4649 3.80589 14.3973 3.76007C14.3071 3.71436 14.2168 3.64575 14.0815 3.65715C13.5176 3.72582 13.4048 3.92021 12.9198 3.80583C12.4349 3.69145 12.3108 3.58853 11.792 3.62278" fill="#88CE02"/>
<path d="M10.0659 14.0189C10.0433 13.9961 10.0884 13.9732 10.0659 13.9732C9.9193 13.9732 9.71625 13.8589 9.6034 13.6987C9.11845 12.9896 8.40785 12.5207 7.1221 12.555C5.19341 12.6007 4.42644 11.8002 4.27987 10.2676C4.20091 9.43267 3.97532 8.62061 3.5129 8.16309L3.24219 8.33468C3.76097 8.79215 3.93019 9.53559 4.04299 10.5535C4.22345 12.0861 5.44154 12.7952 6.86268 12.8181C8.34019 12.8409 8.87027 13.1498 9.42289 13.9047C9.60335 14.1448 9.8064 14.2249 9.96427 14.2592L10.0659 14.0189Z" fill="black"/>
<path opacity="0.4" d="M15.2999 6.66504C15.3338 6.83658 15.424 7.16827 15.6044 7.32836C15.6835 7.40843 15.6947 7.43128 15.627 7.43128C15.5593 7.43128 15.0631 7.40843 15.0631 7.40843L14.9277 7.16827L15.2999 6.66504Z" fill="black"/>
</g>
<defs>
<clipPath id="clip0_937_44">
<rect width="17" height="20" fill="white"/>
</clipPath>
</defs>
</svg>
