<svg width="17" height="17" viewBox="0 0 17 17" fill="none" xmlns="http://www.w3.org/2000/svg">
<g clip-path="url(#clip0_923_34)">
<path d="M17 0H0V17H17V0Z" fill="#F7DF1E"/>
<path d="M11.4201 13.2817C11.7625 13.8408 12.2081 14.2517 12.996 14.2517C13.6579 14.2517 14.0808 13.9209 14.0808 13.4638C14.0808 12.916 13.6463 12.722 12.9177 12.4033L12.5184 12.232C11.3656 11.7409 10.5998 11.1256 10.5998 9.825C10.5998 8.62691 11.5127 7.71484 12.9393 7.71484C13.955 7.71484 14.6852 8.06834 15.2114 8.99389L13.9674 9.79262C13.6935 9.30151 13.3981 9.10803 12.9393 9.10803C12.4714 9.10803 12.1749 9.40486 12.1749 9.79262C12.1749 10.2719 12.4717 10.4659 13.1571 10.7627L13.5565 10.9338C14.9138 11.5158 15.6801 12.1092 15.6801 13.4433C15.6801 14.8816 14.5503 15.6695 13.033 15.6695C11.5494 15.6695 10.5909 14.9625 10.1219 14.0359L11.4201 13.2817ZM5.77693 13.4201C6.02788 13.8653 6.25617 14.2418 6.80502 14.2418C7.32986 14.2418 7.66096 14.0364 7.66096 13.238V7.80605H9.25842V13.2595C9.25842 14.9137 8.28861 15.6665 6.87302 15.6665C5.59398 15.6665 4.85326 15.0046 4.47656 14.2074L5.77693 13.4201Z" fill="black"/>
</g>
<defs>
<clipPath id="clip0_923_34">
<rect width="17" height="17" fill="white"/>
</clipPath>
</defs>
</svg>
