<svg width="17" height="12" viewBox="0 0 17 12" fill="none" xmlns="http://www.w3.org/2000/svg">
<g clip-path="url(#clip0_923_31)">
<path d="M14.6289 6.89702C14.0362 6.89994 13.521 7.03438 13.0897 7.23311C12.9314 6.93793 12.7731 6.6749 12.7452 6.48202C12.7141 6.25698 12.6769 6.11962 12.7141 5.85074C12.7514 5.58187 12.919 5.19901 12.9159 5.16979C12.9128 5.14056 12.8786 5.0032 12.5373 5.00028C12.1959 4.99736 11.9011 5.06166 11.8669 5.14641C11.8328 5.23116 11.7676 5.42405 11.7242 5.62278C11.6652 5.91504 11.0415 6.95839 10.6846 7.50491C10.5698 7.29156 10.4704 7.10452 10.4487 6.95547C10.4177 6.73043 10.3805 6.59307 10.4177 6.3242C10.4549 6.05532 10.6225 5.67247 10.6194 5.64324C10.6163 5.61402 10.5822 5.47666 10.2408 5.47373C9.89944 5.47081 9.60462 5.53511 9.57048 5.61986C9.53635 5.70462 9.49911 5.90335 9.42773 6.09624C9.35635 6.28913 8.52777 8.03097 8.31053 8.48104C8.19881 8.71192 8.10261 8.89604 8.03434 9.02171C8.03434 9.02171 8.03124 9.03048 8.02193 9.04509C7.96296 9.15323 7.92883 9.21168 7.92883 9.21168C7.92883 9.21168 7.92883 9.21168 7.92883 9.2146C7.88228 9.29351 7.83262 9.36657 7.8078 9.36657C7.78918 9.36657 7.75504 9.15615 7.814 8.86974C7.93814 8.26477 8.23295 7.32371 8.22985 7.29156C8.22985 7.27403 8.28571 7.11036 8.03744 7.02561C7.79538 6.94086 7.70849 7.08114 7.68677 7.08114C7.66504 7.08114 7.64953 7.13082 7.64953 7.13082C7.64953 7.13082 7.91952 6.07286 7.13438 6.07286C6.64405 6.07286 5.96753 6.57846 5.63237 7.03438C5.42134 7.14251 4.97136 7.37339 4.49034 7.62181C4.30725 7.71825 4.11795 7.8147 3.94106 7.9053C3.92864 7.89361 3.91623 7.879 3.90382 7.86731C2.9542 6.91163 1.19772 6.23652 1.2722 4.95352C1.30013 4.48591 1.47081 3.25844 4.64551 1.76794C7.25851 0.555079 9.33773 0.891173 9.69772 1.63642C10.2129 2.70023 8.58363 4.67588 5.88374 4.96229C4.85343 5.07042 4.31346 4.69634 4.17691 4.55605C4.03416 4.40993 4.01243 4.40116 3.95968 4.43038C3.87278 4.47422 3.92864 4.60574 3.95968 4.68172C4.04036 4.88046 4.37242 5.23116 4.93412 5.40359C5.43065 5.55557 6.63784 5.64032 8.09951 5.10842C9.73496 4.51222 11.0135 2.85513 10.638 1.46692C10.2625 0.0582453 7.77987 -0.40644 5.43065 0.379726C4.03416 0.847334 2.51973 1.58382 1.43047 2.54241C0.136383 3.68221 -0.068436 4.67296 0.0153537 5.08796C0.316376 6.56092 2.47319 7.51952 3.33591 8.2297C3.29246 8.25308 3.25212 8.27354 3.21798 8.29108C2.78662 8.49273 1.14186 9.30228 0.732221 10.1586C0.266723 11.1289 0.806701 11.8244 1.16358 11.918C2.27147 12.2073 3.41039 11.6871 4.02174 10.8279C4.6331 9.96862 4.55862 8.8522 4.27622 8.34076C4.27311 8.33491 4.27001 8.32907 4.2638 8.32322C4.37552 8.26185 4.49034 8.19755 4.60206 8.13618C4.8224 8.01343 5.03963 7.89945 5.22583 7.80593C5.12032 8.07773 5.04274 8.40213 5.0055 8.86974C4.95895 9.41918 5.1979 10.1323 5.51134 10.4128C5.65099 10.5356 5.81546 10.5385 5.92098 10.5385C6.28717 10.5385 6.45164 10.2521 6.63474 9.91309C6.85818 9.49809 7.0599 9.01587 7.0599 9.01587C7.0599 9.01587 6.80853 10.3193 7.49126 10.3193C7.73952 10.3193 7.99089 10.0154 8.10261 9.86049C8.10261 9.86341 8.10261 9.86341 8.10261 9.86341C8.10261 9.86341 8.10882 9.85464 8.12123 9.83418C8.14606 9.79619 8.16158 9.77281 8.16158 9.77281C8.16158 9.77281 8.16158 9.76989 8.16158 9.76696C8.26088 9.6033 8.48432 9.23214 8.81638 8.61548C9.24463 7.82054 9.65738 6.82688 9.65738 6.82688C9.65738 6.82688 9.69462 7.06945 9.82185 7.47276C9.89633 7.70949 10.0515 7.96959 10.1756 8.22093C10.0763 8.35245 10.0143 8.42551 10.0143 8.42551C10.0143 8.42551 10.0143 8.42551 10.0174 8.42843C9.93668 8.5278 9.84978 8.63594 9.75358 8.74115C9.41532 9.12108 9.01189 9.55654 8.95603 9.68221C8.89086 9.83126 8.90637 9.93939 9.03051 10.0271C9.1205 10.0914 9.28187 10.1001 9.44635 10.0914C9.75048 10.0709 9.96461 10.0008 10.0701 9.95693C10.2346 9.9014 10.427 9.81665 10.607 9.69098C10.939 9.4601 11.1408 9.12985 11.1221 8.69439C11.1128 8.45474 11.029 8.21509 10.9266 7.99005C10.9577 7.94914 10.9856 7.90822 11.0166 7.86731C11.5411 7.14543 11.9476 6.35342 11.9476 6.35342C11.9476 6.35342 11.9849 6.59599 12.1121 6.99931C12.1742 7.20389 12.3014 7.426 12.4131 7.64227C11.9197 8.01928 11.6156 8.45766 11.507 8.74407C11.3114 9.27598 11.4635 9.51562 11.7521 9.57115C11.8825 9.59746 12.0687 9.539 12.2052 9.48348C12.379 9.43087 12.5838 9.34027 12.7793 9.20583C13.1114 8.97495 13.431 8.65347 13.4124 8.21801C13.4031 8.01928 13.3472 7.82347 13.2696 7.6335C13.6886 7.46984 14.2286 7.37924 14.9175 7.45523C16.3947 7.61889 16.6864 8.48689 16.6305 8.8522C16.5747 9.21752 16.2644 9.41626 16.1619 9.47763C16.0595 9.539 16.0254 9.55946 16.0347 9.6033C16.0471 9.6676 16.0968 9.66467 16.1837 9.65298C16.3047 9.63253 16.9595 9.35781 16.9874 8.68562C17.034 7.82639 16.165 6.88825 14.6289 6.89702ZM3.2335 10.5151C2.74317 11.0178 2.06044 11.2078 1.76563 11.047C1.44909 10.8746 1.57322 10.1323 2.17527 9.60038C2.54146 9.27597 3.01316 8.97495 3.3266 8.79083C3.39798 8.74992 3.50349 8.69146 3.63072 8.6184C3.65245 8.60671 3.66486 8.60086 3.66486 8.60086C3.68969 8.58625 3.71451 8.57164 3.73934 8.55703C3.95968 9.31689 3.74865 9.98615 3.2335 10.5151ZM6.80232 8.2297C6.63164 8.62132 6.27476 9.62376 6.05752 9.56823C5.87132 9.52147 5.7565 8.76161 6.02028 8.01051C6.15373 7.6335 6.43613 7.18343 6.6006 7.00807C6.86749 6.72751 7.16231 6.63399 7.23368 6.74797C7.32368 6.89702 6.90783 7.98421 6.80232 8.2297ZM9.74737 9.55654C9.676 9.59161 9.60772 9.61499 9.57669 9.59746C9.55497 9.58577 9.60772 9.539 9.60772 9.539C9.60772 9.539 9.97702 9.16492 10.1229 8.99541C10.2067 8.89604 10.306 8.77914 10.4115 8.64763C10.4115 8.65932 10.4115 8.67393 10.4115 8.68562C10.4115 9.13277 9.95219 9.43379 9.74737 9.55654ZM12.019 9.06847C11.9662 9.0334 11.9756 8.9165 12.1524 8.55118C12.2207 8.40798 12.3821 8.16833 12.6583 7.93745C12.6893 8.03097 12.711 8.12157 12.7079 8.20632C12.7048 8.77037 12.2766 8.9808 12.019 9.06847Z" fill="#CD6799"/>
</g>
<defs>
<clipPath id="clip0_923_31">
<rect width="17" height="12" fill="white"/>
</clipPath>
</defs>
</svg>
