<svg width="13" height="17" viewBox="0 0 13 17" fill="none" xmlns="http://www.w3.org/2000/svg">
<g clip-path="url(#clip0_759_219)">
<path d="M12.1655 2.24746C10.7211 -0.0144022 7.84546 -0.677114 5.77818 0.749157L2.13394 3.28475C1.14006 3.96187 0.450964 5.07119 0.252187 6.32458C0.0799137 7.37628 0.225683 8.45678 0.689496 9.39322C0.371453 9.91187 0.159424 10.4881 0.0666619 11.0932C-0.145367 12.3754 0.132921 13.7009 0.822014 14.7525C2.27971 17.0144 5.1421 17.6771 7.20937 16.2509L10.8536 13.7297C11.8475 13.0525 12.5366 11.9432 12.7354 10.6898C12.9076 9.63814 12.7619 8.55763 12.2981 7.62119C12.6161 7.10255 12.8281 6.52627 12.9209 5.92119C13.1462 4.62458 12.8679 3.29916 12.1655 2.24746Z" fill="#FF3E00"/>
<path d="M5.4196 14.9686C4.24019 15.3 3.00778 14.7957 2.31869 13.7152C1.89463 13.0813 1.73561 12.289 1.85487 11.511C1.88138 11.3813 1.90788 11.2661 1.93438 11.1364L2.00064 10.9059L2.18617 11.05C2.62348 11.3957 3.10054 11.6551 3.61736 11.8279L3.74988 11.8712L3.73663 12.0152C3.72337 12.2169 3.77638 12.433 3.8824 12.6059C4.09442 12.9373 4.46547 13.0957 4.82327 12.9949C4.90278 12.9661 4.98229 12.9373 5.04855 12.894L8.67954 10.3729C8.86507 10.2432 8.98433 10.0559 9.02409 9.8254C9.06384 9.59489 9.01084 9.34998 8.89157 9.16269C8.67954 8.83134 8.30849 8.68727 7.95069 8.78812C7.87118 8.81693 7.79167 8.84574 7.72541 8.88896L6.33398 9.85422C6.1087 10.0127 5.85691 10.1279 5.59188 10.2C4.41247 10.5313 3.18005 10.0271 2.49096 8.94659C2.08015 8.31269 1.90788 7.52032 2.0404 6.74235C2.15966 5.9932 2.58372 5.31608 3.18005 4.91269L6.82429 2.3915C7.04957 2.23303 7.30136 2.11778 7.56639 2.03133C8.7458 1.69998 9.97822 2.20422 10.6673 3.28472C11.0914 3.91862 11.2504 4.711 11.1311 5.48896C11.1046 5.61862 11.0781 5.73388 11.0384 5.86354L10.9721 6.09405L10.7866 5.94998C10.3493 5.60422 9.8722 5.34489 9.35538 5.17201L9.22286 5.12879L9.23612 4.98472C9.24937 4.78303 9.19636 4.56693 9.09035 4.39405C8.87832 4.06269 8.50727 3.91862 8.14947 4.01947C8.06996 4.04828 7.99045 4.0771 7.92419 4.12032L4.2932 6.6415C4.10768 6.77117 3.98841 6.95845 3.94865 7.18896C3.9089 7.41947 3.96191 7.66439 4.08117 7.85167C4.2932 8.18303 4.66425 8.3271 5.02205 8.22625C5.10156 8.19744 5.18107 8.16862 5.24733 8.1254L6.63877 7.16015C6.86405 7.00167 7.11583 6.88642 7.38087 6.79998C8.56028 6.46862 9.79269 6.97286 10.4818 8.05337C10.9058 8.68727 11.0649 9.47964 10.9456 10.2576C10.8263 11.0068 10.4023 11.6839 9.80594 12.0873L6.1617 14.6085C5.93642 14.7669 5.68464 14.8822 5.4196 14.9686Z" fill="#FDFBF7"/>
</g>
<defs>
<clipPath id="clip0_759_219">
<rect width="13" height="17" fill="white"/>
</clipPath>
</defs>
</svg>
