<svg width="17" height="17" viewBox="0 0 17 17" fill="none" xmlns="http://www.w3.org/2000/svg">
<path d="M8.5 17C13.1944 17 17 13.1944 17 8.5C17 3.80558 13.1944 0 8.5 0C3.80558 0 0 3.80558 0 8.5C0 13.1944 3.80558 17 8.5 17Z" fill="black"/>
<path d="M12.2153 3.14495C11.3521 3.17523 10.5978 3.65122 10.0373 4.30949C9.41571 5.03135 9.0027 5.88795 8.70475 6.76181C8.17214 6.32519 7.76125 5.76017 6.90676 5.5137C6.24577 5.32385 5.55237 5.40197 4.91439 5.87736C4.6119 6.10324 4.40388 6.44449 4.30487 6.76514C4.0481 7.59903 4.57405 8.34118 4.81326 8.60794L5.33557 9.1669C5.44337 9.27681 5.70226 9.56325 5.57599 9.97354C5.43883 10.4202 4.90107 10.7087 4.34908 10.5389C4.1026 10.4625 3.74833 10.2794 3.82797 10.0214C3.86067 9.9154 3.93637 9.83576 3.97725 9.74523C4.01449 9.6665 4.03205 9.60776 4.04325 9.57324C4.14408 9.24381 4.00631 8.81566 3.65386 8.70695C3.32473 8.60643 2.98863 8.68636 2.85812 9.10936C2.70976 9.59111 2.94018 10.4635 4.17345 10.8441C5.61838 11.2883 6.84076 10.501 7.01395 9.47514C7.12326 8.83261 6.83258 8.35481 6.30118 7.74044L5.86819 7.26172C5.60566 6.9992 5.51574 6.55258 5.78704 6.20952C6.01625 5.91975 6.34236 5.79621 6.87739 5.94124C7.65769 6.15259 8.0056 6.69429 8.58575 7.13122C8.34624 7.91697 8.1894 8.70574 8.04799 9.41367L7.96109 9.94053C7.54596 12.1164 7.22954 13.3109 6.40655 13.9967C6.24092 14.1151 6.00353 14.2914 5.64654 14.3038C5.45911 14.3098 5.39886 14.1808 5.39583 14.1245C5.39159 13.9931 5.50272 13.9329 5.57629 13.8738C5.68621 13.8136 5.85244 13.7142 5.84124 13.396C5.82882 13.0187 5.51695 12.6923 5.06639 12.7078C4.72817 12.719 4.21373 13.0366 4.23311 13.6192C4.25309 14.2199 4.81326 14.6708 5.65805 14.6417C6.10981 14.6269 7.11811 14.4431 8.11158 13.2619C9.26794 11.9075 9.59163 10.3551 9.83507 9.21898L10.1064 7.71924C10.2575 7.73711 10.4186 7.74952 10.5942 7.75346C12.0346 7.78434 12.7549 7.03796 12.7661 6.49536C12.7731 6.16683 12.5505 5.84374 12.2386 5.85101C12.0158 5.85737 11.7354 6.00574 11.6682 6.31398C11.6025 6.61678 12.1266 6.88989 11.7169 7.15544C11.4259 7.34408 10.9042 7.47671 10.1697 7.36891L10.3035 6.6304C10.5757 5.23029 10.9124 3.508 12.1881 3.46652C12.281 3.46167 12.6214 3.47076 12.6292 3.69543C12.6314 3.77052 12.6129 3.7899 12.5251 3.96189C12.4352 4.09572 12.4015 4.20987 12.4055 4.34129C12.4182 4.69858 12.6898 4.93355 13.0831 4.91962C13.6091 4.90236 13.7605 4.39034 13.752 4.12691C13.7302 3.5077 13.078 3.1171 12.2153 3.14495Z" fill="#FDFBF7"/>
</svg>
