<svg width="17" height="10" viewBox="0 0 17 10" fill="none" xmlns="http://www.w3.org/2000/svg">
<g clip-path="url(#clip0_937_37)">
<mask id="mask0_937_37" style="mask-type:luminance" maskUnits="userSpaceOnUse" x="0" y="0" width="17" height="10">
<path d="M0 0H17V9.81818H0V0Z" fill="white"/>
</mask>
<g mask="url(#mask0_937_37)">
<path fill-rule="evenodd" clip-rule="evenodd" d="M8.5 0C6.23333 0 4.81667 1.09091 4.25 3.27273C5.1 2.18182 6.09167 1.77273 7.225 2.04545C7.87163 2.20091 8.33378 2.65273 8.84535 3.15242C9.67867 3.96667 10.6433 4.90909 12.75 4.90909C15.0167 4.90909 16.4333 3.81818 17 1.63636C16.15 2.72727 15.1583 3.13636 14.025 2.86364C13.3784 2.70818 12.9162 2.25636 12.4046 1.75667C11.5713 0.942424 10.6067 0 8.5 0ZM4.25 4.90909C1.98333 4.90909 0.566667 6 0 8.18182C0.85 7.09091 1.84167 6.68182 2.975 6.95455C3.62163 7.1103 4.08378 7.56182 4.59535 8.06151C5.42867 8.87576 6.39326 9.81818 8.5 9.81818C10.7667 9.81818 12.1833 8.72727 12.75 6.54545C11.9 7.63636 10.9083 8.04545 9.775 7.77273C9.12837 7.61727 8.66622 7.16545 8.15465 6.66576C7.32133 5.85151 6.35674 4.90909 4.25 4.90909Z" fill="#38BDF8"/>
</g>
</g>
<defs>
<clipPath id="clip0_937_37">
<rect width="17" height="10" fill="white"/>
</clipPath>
</defs>
</svg>
