<svg width="17" height="17" viewBox="0 0 17 17" fill="none" xmlns="http://www.w3.org/2000/svg">
<g clip-path="url(#clip0_940_123)">
<path d="M4.56078 16.5134L0.53125 0.488281L16.4688 4.96406" fill="white"/>
<path d="M6.52891 9.62594L7.53563 13.6342M6.52891 9.62594L10.5053 10.7522M6.52891 9.62594L3.55922 12.508M6.52891 9.62594L9.50125 6.74125M6.52891 9.62594L5.52219 5.61766M6.52891 9.62594L2.5525 8.49969M7.53563 13.6342L10.5053 10.7522M7.53563 13.6342L3.55922 12.508M7.53563 13.6342L4.56594 16.5189L3.55922 12.508M10.5053 10.7522L9.50125 6.74125M10.5053 10.7522L13.4777 7.8675M3.55922 12.508L2.5525 8.49969M9.50125 6.74125L12.4709 3.85922M9.50125 6.74125L8.49453 2.73297M9.50125 6.74125L5.52219 5.61766M9.50125 6.74125L13.4777 7.8675M12.4709 3.85922L16.4473 4.98547L13.4777 7.8675M12.4709 3.85922L13.4777 7.8675M12.4709 3.85922L8.49453 2.73297M8.49453 2.73297L5.52219 5.61501L4.51547 1.60672M8.49453 2.73297L4.51547 1.60672M5.52219 5.61766L1.54578 4.49141M5.52219 5.61766L2.5525 8.49969M2.5525 8.49969L1.54578 4.49141M1.54578 4.49141L0.539062 0.480469L4.51547 1.60672M1.54578 4.49141L4.51547 1.60672" stroke="black" stroke-width="0.3" stroke-miterlimit="10"/>
</g>
<defs>
<clipPath id="clip0_940_123">
<rect width="17" height="17" fill="white"/>
</clipPath>
</defs>
</svg>
