<svg width="17" height="24" viewBox="0 0 17 24" fill="none" xmlns="http://www.w3.org/2000/svg">
<g clip-path="url(#clip0_937_5)">
<path opacity="0.3" d="M14.3551 24C15.4503 24 16.3381 23.8111 16.3381 23.5781C16.3381 23.3451 15.4503 23.1562 14.3551 23.1562C13.2599 23.1562 12.3721 23.3451 12.3721 23.5781C12.3721 23.8111 13.2599 24 14.3551 24Z" fill="url(#paint0_radial_937_5)"/>
<path d="M15.3425 8.3252C14.2532 12.8158 13.5829 20.0439 13.4805 22.3033H15.2121C14.9235 21.6564 15.1376 11.4096 15.3425 8.3252Z" fill="url(#paint1_linear_937_5)"/>
<path opacity="0.28" d="M15.3425 8.34375C15.3425 8.34375 14.4115 17.2125 14.5046 22.3219H15.2121C14.9235 21.675 15.1377 11.4281 15.3425 8.34375Z" fill="url(#paint2_linear_937_5)"/>
<path opacity="0.33" d="M15.3425 8.3252C15.3239 8.37207 15.3053 8.42832 15.3053 8.48457C14.998 9.94707 13.825 18.5533 13.9646 19.4908C14.458 20.3158 14.4115 22.1346 14.4115 22.1346L15.147 21.9189C14.9515 19.9033 15.1563 11.1377 15.3425 8.3252Z" fill="url(#paint3_linear_937_5)"/>
<path d="M16.9989 16.4062C14.9042 17.8406 14.1408 21.5344 14.1687 23.6719L15.2673 23.625C15.1556 19.3687 15.9283 17.7375 16.9989 16.4062Z" fill="url(#paint4_linear_937_5)"/>
<path opacity="0.17" d="M16.8316 16.6035C14.4482 18.5254 14.4761 22.8566 14.5041 23.6723L15.2489 23.6441C15.1558 19.566 15.8633 17.8973 16.8502 16.6035H16.8316Z" fill="url(#paint5_linear_937_5)"/>
<path d="M11.46 19.1815C15.1281 18.6565 14.3461 23.8971 14.3088 23.9252C14.2716 23.9627 13.1451 23.8502 13.1823 23.6909C13.6013 22.0127 13.4523 19.2659 11.46 19.1815Z" fill="url(#paint6_linear_937_5)"/>
<path opacity="0.08" d="M13.3125 19.585C13.8525 21.01 13.629 23.4287 13.5825 23.8693C13.8152 23.9162 14.0573 23.935 14.29 23.935C14.3273 23.8881 14.7928 20.7568 13.3125 19.585Z" fill="url(#paint7_linear_937_5)"/>
<path opacity="0.47" d="M14.6902 21.6846C14.9679 21.6846 15.193 21.4747 15.193 21.2158C15.193 20.9569 14.9679 20.7471 14.6902 20.7471C14.4126 20.7471 14.1875 20.9569 14.1875 21.2158C14.1875 21.4747 14.4126 21.6846 14.6902 21.6846Z" fill="url(#paint8_radial_937_5)"/>
<path opacity="0.47" d="M13.9647 21.6846C14.2423 21.6846 14.4674 21.4747 14.4674 21.2158C14.4674 20.9569 14.2423 20.7471 13.9647 20.7471C13.687 20.7471 13.4619 20.9569 13.4619 21.2158C13.4619 21.4747 13.687 21.6846 13.9647 21.6846Z" fill="url(#paint9_radial_937_5)"/>
<path d="M14.691 21.5061C14.8503 21.5061 14.9796 21.3759 14.9796 21.2154C14.9796 21.0549 14.8503 20.9248 14.691 20.9248C14.5316 20.9248 14.4023 21.0549 14.4023 21.2154C14.4023 21.3759 14.5316 21.5061 14.691 21.5061Z" fill="white"/>
<path d="M13.9644 21.5061C14.1238 21.5061 14.253 21.3759 14.253 21.2154C14.253 21.0549 14.1238 20.9248 13.9644 20.9248C13.805 20.9248 13.6758 21.0549 13.6758 21.2154C13.6758 21.3759 13.805 21.5061 13.9644 21.5061Z" fill="white"/>
<path d="M16.1153 23.6531H16.3387L16.7483 22.9406M15.8453 21.9844L15.1098 23.9719H15.6032M12.1772 22.3031L12.4192 23.8406H12.7451M11.5068 22.875L11.6372 23.4375H11.9165" fill="#A0CB29"/>
<path d="M6.66554 21.6658C6.91691 17.0439 6.71209 13.5283 6.49796 11.9158C6.43279 11.372 6.2466 10.2001 6.00454 8.93452C5.82765 7.98765 5.71593 7.58452 5.64145 7.2939C5.55766 6.9939 5.42732 6.5814 5.16664 5.73765C5.07354 5.4189 4.98044 5.1564 4.86872 4.8189C4.73838 4.43452 4.67321 4.22827 4.5708 3.97515C4.53356 3.87202 4.36598 3.47827 4.07737 2.8314C3.88186 2.3814 3.64911 1.94077 3.38844 1.5189C3.01604 0.975146 2.63433 0.422021 2.07573 0.300146C1.07956 0.0751462 0.0647769 1.3314 -0.00039292 1.26577C-0.0655627 1.20015 0.455796 0.403271 1.35886 0.112646C1.70333 0.0095212 2.07573 -0.0186038 2.42951 0.0470212C3.23948 0.197021 3.76083 0.750146 4.40322 1.46265C4.757 1.86577 5.08285 2.29702 5.37146 2.7564C5.80903 3.41265 6.18143 4.11577 6.48865 4.84702C6.6283 5.18452 6.7214 5.47515 6.9076 6.03765C7.19621 6.94702 7.42896 7.87515 7.62447 8.81265C7.62447 8.81265 7.6524 8.95327 7.68964 9.11265C8.05273 11.0251 8.29479 12.9564 8.41582 14.9064C8.59271 17.3908 8.62995 19.8751 8.54616 22.3689" fill="url(#paint10_linear_937_5)"/>
<path opacity="0.3" d="M7.88473 23.625C10.034 23.625 11.7763 23.4361 11.7763 23.2031C11.7763 22.9701 10.034 22.7812 7.88473 22.7812C5.73548 22.7812 3.99316 22.9701 3.99316 23.2031C3.99316 23.4361 5.73548 23.625 7.88473 23.625Z" fill="url(#paint11_radial_937_5)"/>
<path opacity="0.33" d="M7.46634 21.8065C7.45703 20.9815 7.43841 19.7721 7.39186 18.3096C7.29877 15.1596 7.25222 13.5471 7.01947 11.7752C6.85189 10.4815 6.64707 9.47833 6.22812 7.45333C5.94882 5.87833 5.48332 4.34083 4.84093 2.87833C4.54302 2.20333 4.18924 1.60333 3.58409 1.03146C2.82998 0.328334 2.06656 0.0658343 2.09449 0.0095843C2.12242 -0.0466657 2.9417 0.168959 3.69581 0.768959C4.07752 1.06896 4.31958 1.35958 4.58026 1.66896C4.80369 1.94083 5.11092 2.35333 5.57642 3.17833C5.97675 3.89083 6.44225 4.71583 6.84258 5.86896C7.01016 6.36583 7.11257 6.82521 7.31738 7.70646C7.46634 8.35333 7.75495 9.61896 7.95977 10.8471C8.04356 11.344 8.27631 12.8252 8.43458 16.3502C8.49975 17.9065 8.55561 19.9127 8.52768 22.2565" fill="url(#paint12_linear_937_5)"/>
<path opacity="0.28" d="M7.74594 22.2193C7.91352 16.4912 7.63422 12.3006 7.42009 11.1756C6.89874 8.53184 6.83357 8.44746 6.71254 7.98809C6.59151 7.52871 6.47979 7.15371 6.36807 6.79746C6.16325 6.08496 6.06084 5.74746 5.97705 5.49434C5.72568 4.70684 5.39983 3.94746 5.01812 3.21621C4.58987 2.40996 4.06851 1.64121 3.48198 0.938086C3.26785 0.666211 2.98855 0.441211 2.67201 0.281836C2.39271 0.169336 2.09479 0.0849609 1.79688 0.0380859C2.00169 -0.00878906 2.22513 0.00058594 2.42995 0.0662109C2.70925 0.131836 3.37026 0.338086 4.39436 1.48184C4.74813 1.88496 5.07398 2.31621 5.36259 2.77559C5.80016 3.43184 6.17256 4.13496 6.47979 4.86621C6.61944 5.20371 6.71254 5.49434 6.89874 6.05684C7.18735 6.96621 7.4201 7.89434 7.6156 8.83184C7.6156 8.83184 7.64353 8.97246 7.68077 9.13184C8.04386 11.0443 8.28592 12.9756 8.40695 14.9256C8.58384 17.41 8.62108 19.8943 8.53729 22.3881" fill="url(#paint13_linear_937_5)"/>
<path d="M6.12509 23.2406L7.88467 23.325C7.93122 19.6406 6.68368 13.2562 3.31348 10.7812C5.03582 13.0781 6.27405 15.8906 6.12509 23.2406Z" fill="url(#paint14_linear_937_5)"/>
<path opacity="0.17" d="M3.56445 11.1191C5.16577 13.3691 6.29227 16.2473 6.14331 23.2691L7.3443 23.3254C7.39085 21.9098 7.41878 14.4285 3.56445 11.1191Z" fill="url(#paint15_linear_937_5)"/>
<path d="M9.70048 23.0624C9.76565 23.3624 7.68953 23.5593 7.61505 23.4937C7.54057 23.428 6.10684 13.4437 12.8659 14.4468C9.20706 14.6249 8.91845 19.8468 9.70048 23.0624Z" fill="url(#paint16_linear_937_5)"/>
<path opacity="0.08" d="M7.61539 23.5031C8.05296 23.5125 8.49984 23.475 8.9281 23.3812C8.84431 22.5375 8.43467 17.9437 9.42152 15.2344C6.6937 17.475 7.55953 23.4562 7.61539 23.5031Z" fill="url(#paint17_linear_937_5)"/>
<path d="M9.70095 23.2875H9.97094L10.4551 22.4531M9.52406 21.2812L8.65824 23.625H9.24476M5.18562 22.1906L5.50216 23.5781H5.93041M4.46875 22.6406L4.62702 23.3063H4.95287" fill="#A0CB29"/>
<path opacity="0.47" d="M8.28516 19.3031C8.74792 19.3031 9.12306 18.9589 9.12306 18.5344C9.12306 18.1098 8.74792 17.7656 8.28516 17.7656C7.8224 17.7656 7.44727 18.1098 7.44727 18.5344C7.44727 18.9589 7.8224 19.3031 8.28516 19.3031Z" fill="url(#paint18_radial_937_5)"/>
<path d="M8.28562 19.0691C8.58898 19.0691 8.8349 18.8215 8.8349 18.516C8.8349 18.2105 8.58898 17.9629 8.28562 17.9629C7.98225 17.9629 7.73633 18.2105 7.73633 18.516C7.73633 18.8215 7.98225 19.0691 8.28562 19.0691Z" fill="white"/>
<path opacity="0.47" d="M6.90723 19.3031C7.36999 19.3031 7.74513 18.9589 7.74513 18.5344C7.74513 18.1098 7.36999 17.7656 6.90723 17.7656C6.44448 17.7656 6.06934 18.1098 6.06934 18.5344C6.06934 18.9589 6.44448 19.3031 6.90723 19.3031Z" fill="url(#paint19_radial_937_5)"/>
<path d="M6.90769 19.0691C7.21105 19.0691 7.45697 18.8215 7.45697 18.516C7.45697 18.2105 7.21105 17.9629 6.90769 17.9629C6.60432 17.9629 6.3584 18.2105 6.3584 18.516C6.3584 18.8215 6.60432 19.0691 6.90769 19.0691Z" fill="white"/>
</g>
<defs>
<radialGradient id="paint0_radial_937_5" cx="0" cy="0" r="1" gradientUnits="userSpaceOnUse" gradientTransform="translate(14.3597 23.5757) scale(1.43453 1.47757)">
<stop stop-color="#323232" stop-opacity="0.92"/>
<stop offset="0.24" stop-color="#272727" stop-opacity="0.64"/>
<stop offset="0.64" stop-color="#0B0B0B" stop-opacity="0.09"/>
<stop offset="0.79" stop-opacity="0"/>
</radialGradient>
<linearGradient id="paint1_linear_937_5" x1="14.4103" y1="19.6323" x2="14.4103" y2="7.77667" gradientUnits="userSpaceOnUse">
<stop stop-color="#3D6A06"/>
<stop offset="0.16" stop-color="#588710"/>
<stop offset="0.33" stop-color="#6D9D18"/>
<stop offset="0.51" stop-color="#7BAE1E"/>
<stop offset="0.72" stop-color="#84B721"/>
<stop offset="1" stop-color="#87BA22"/>
</linearGradient>
<linearGradient id="paint2_linear_937_5" x1="14.9203" y1="22.325" x2="14.9203" y2="8.34793" gradientUnits="userSpaceOnUse">
<stop stop-color="#BBE882"/>
<stop offset="0.14" stop-color="#BEE988" stop-opacity="0.92"/>
<stop offset="0.34" stop-color="#C8EC9A" stop-opacity="0.8"/>
<stop offset="0.58" stop-color="#D8F2B7" stop-opacity="0.67"/>
<stop offset="0.83" stop-color="#EEF9E0" stop-opacity="0.53"/>
<stop offset="1" stop-color="white" stop-opacity="0.43"/>
</linearGradient>
<linearGradient id="paint3_linear_937_5" x1="14.6491" y1="21.6285" x2="14.6491" y2="9.16225" gradientUnits="userSpaceOnUse">
<stop stop-color="#48790B"/>
<stop offset="0.82" stop-color="white" stop-opacity="0.43"/>
</linearGradient>
<linearGradient id="paint4_linear_937_5" x1="15.5772" y1="23.4131" x2="15.5772" y2="19.1507" gradientUnits="userSpaceOnUse">
<stop stop-color="#5E7814"/>
<stop offset="0.51" stop-color="#8AA21F"/>
<stop offset="1" stop-color="#B1C628"/>
</linearGradient>
<linearGradient id="paint5_linear_937_5" x1="15.7218" y1="22.7012" x2="15.6548" y2="19.2647" gradientUnits="userSpaceOnUse">
<stop stop-color="#82AF10"/>
<stop offset="0.82" stop-color="white" stop-opacity="0"/>
</linearGradient>
<linearGradient id="paint6_linear_937_5" x1="12.9321" y1="23.5504" x2="12.9321" y2="19.7107" gradientUnits="userSpaceOnUse">
<stop stop-color="#5E7814"/>
<stop offset="0.14" stop-color="#758E1A"/>
<stop offset="0.34" stop-color="#8FA620"/>
<stop offset="0.55" stop-color="#A2B824"/>
<stop offset="0.77" stop-color="#ADC327"/>
<stop offset="1" stop-color="#B1C628"/>
</linearGradient>
<linearGradient id="paint7_linear_937_5" x1="13.8511" y1="23.8403" x2="13.8511" y2="19.4947" gradientUnits="userSpaceOnUse">
<stop stop-color="white"/>
<stop offset="1" stop-color="white" stop-opacity="0"/>
</linearGradient>
<radialGradient id="paint8_radial_937_5" cx="0" cy="0" r="1" gradientUnits="userSpaceOnUse" gradientTransform="translate(14.6935 21.2136) rotate(180) scale(0.484388 0.487772)">
<stop stop-color="#323232"/>
<stop offset="0.29" stop-color="#252525" stop-opacity="0.67"/>
<stop offset="0.83" stop-color="#040404" stop-opacity="0.07"/>
<stop offset="0.89" stop-opacity="0"/>
</radialGradient>
<radialGradient id="paint9_radial_937_5" cx="0" cy="0" r="1" gradientUnits="userSpaceOnUse" gradientTransform="translate(13.9672 21.2136) rotate(180) scale(0.484388 0.487772)">
<stop stop-color="#323232"/>
<stop offset="0.29" stop-color="#252525" stop-opacity="0.67"/>
<stop offset="0.83" stop-color="#040404" stop-opacity="0.07"/>
<stop offset="0.89" stop-opacity="0"/>
</radialGradient>
<linearGradient id="paint10_linear_937_5" x1="4.28664" y1="18.0842" x2="4.28664" y2="-0.891538" gradientUnits="userSpaceOnUse">
<stop stop-color="#3D6A06"/>
<stop offset="0.16" stop-color="#588710"/>
<stop offset="0.33" stop-color="#6D9D18"/>
<stop offset="0.51" stop-color="#7BAE1E"/>
<stop offset="0.72" stop-color="#84B721"/>
<stop offset="1" stop-color="#87BA22"/>
</linearGradient>
<radialGradient id="paint11_radial_937_5" cx="0" cy="0" r="1" gradientUnits="userSpaceOnUse" gradientTransform="translate(7.88572 23.2022) scale(2.80848 1.47757)">
<stop stop-color="#323232" stop-opacity="0.92"/>
<stop offset="0.24" stop-color="#272727" stop-opacity="0.64"/>
<stop offset="0.64" stop-color="#0B0B0B" stop-opacity="0.09"/>
<stop offset="0.79" stop-opacity="0"/>
</radialGradient>
<linearGradient id="paint12_linear_937_5" x1="5.31744" y1="18.0114" x2="5.31744" y2="-0.861916" gradientUnits="userSpaceOnUse">
<stop stop-color="#48790B"/>
<stop offset="0.82" stop-color="white" stop-opacity="0.43"/>
</linearGradient>
<linearGradient id="paint13_linear_937_5" x1="5.18865" y1="18.0817" x2="5.18865" y2="-0.906014" gradientUnits="userSpaceOnUse">
<stop stop-color="#BBE882"/>
<stop offset="0.14" stop-color="#BEE988" stop-opacity="0.92"/>
<stop offset="0.34" stop-color="#C8EC9A" stop-opacity="0.8"/>
<stop offset="0.58" stop-color="#D8F2B7" stop-opacity="0.67"/>
<stop offset="0.83" stop-color="#EEF9E0" stop-opacity="0.53"/>
<stop offset="1" stop-color="white" stop-opacity="0.43"/>
</linearGradient>
<linearGradient id="paint14_linear_937_5" x1="5.60189" y1="22.8715" x2="5.60189" y2="15.5134" gradientUnits="userSpaceOnUse">
<stop stop-color="#5E7814"/>
<stop offset="0.51" stop-color="#8AA21F"/>
<stop offset="1" stop-color="#B1C628"/>
</linearGradient>
<linearGradient id="paint15_linear_937_5" x1="5.37183" y1="21.6429" x2="5.48629" y2="15.7134" gradientUnits="userSpaceOnUse">
<stop stop-color="#82AF10"/>
<stop offset="0.82" stop-color="white" stop-opacity="0"/>
</linearGradient>
<linearGradient id="paint16_linear_937_5" x1="10.1529" y1="22.7774" x2="10.1529" y2="15.4706" gradientUnits="userSpaceOnUse">
<stop stop-color="#5E7814"/>
<stop offset="0.14" stop-color="#758E1A"/>
<stop offset="0.34" stop-color="#8FA620"/>
<stop offset="0.55" stop-color="#A2B824"/>
<stop offset="0.77" stop-color="#ADC327"/>
<stop offset="1" stop-color="#B1C628"/>
</linearGradient>
<linearGradient id="paint17_linear_937_5" x1="8.43225" y1="23.3325" x2="8.43225" y2="15.05" gradientUnits="userSpaceOnUse">
<stop stop-color="white"/>
<stop offset="1" stop-color="white" stop-opacity="0"/>
</linearGradient>
<radialGradient id="paint18_radial_937_5" cx="0" cy="0" r="1" gradientUnits="userSpaceOnUse" gradientTransform="translate(8.28677 18.5304) rotate(180) scale(0.801216 0.806812)">
<stop stop-color="#323232"/>
<stop offset="0.29" stop-color="#252525" stop-opacity="0.67"/>
<stop offset="0.83" stop-color="#040404" stop-opacity="0.07"/>
<stop offset="0.89" stop-opacity="0"/>
</radialGradient>
<radialGradient id="paint19_radial_937_5" cx="0" cy="0" r="1" gradientUnits="userSpaceOnUse" gradientTransform="translate(6.906 18.5304) rotate(180) scale(0.801216 0.806812)">
<stop stop-color="#323232"/>
<stop offset="0.29" stop-color="#252525" stop-opacity="0.67"/>
<stop offset="0.83" stop-color="#040404" stop-opacity="0.07"/>
<stop offset="0.89" stop-opacity="0"/>
</radialGradient>
<clipPath id="clip0_937_5">
<rect width="17" height="24" fill="white"/>
</clipPath>
</defs>
</svg>
