<svg width="17" height="19" viewBox="0 0 17 19" fill="none" xmlns="http://www.w3.org/2000/svg">
<g clip-path="url(#clip0_941_164)">
<path d="M8.63584 0L16.9992 4.74803V14.2462L8.63584 18.9943L0.272461 14.2462V4.74803L8.63584 0Z" fill="white"/>
<path d="M15.5058 13.9187L8.91237 17.6625V14.7473L13.0206 12.4785L15.5058 13.9187ZM15.9575 13.5088V5.68074L13.5457 7.07977V12.1119L15.9575 13.5088ZM1.73975 13.9187L8.3332 17.6625V14.7473L4.22283 12.4785L1.73975 13.9187ZM1.28809 13.5088V5.68074L3.69985 7.07977V12.1119L1.28809 13.5088ZM1.57119 5.17318L8.3332 1.33398V4.15157L4.00024 6.54402L3.96566 6.56354L1.57119 5.17318ZM15.6744 5.17318L8.91237 1.33398V4.15157L13.2453 6.54185L13.2799 6.56137L15.6744 5.17318Z" fill="#8ED6FB"/>
<path d="M8.33348 14.0839L4.2793 11.8454V7.41407L8.33348 9.76314V14.0839ZM8.91265 14.0839L12.9668 11.8476V7.41407L8.91265 9.76314V14.0839ZM4.55375 6.90218L8.62307 4.65723L12.6924 6.90218L8.62307 9.25993L4.55375 6.90218Z" fill="#1C78C0"/>
</g>
<defs>
<clipPath id="clip0_941_164">
<rect width="17" height="19" fill="white"/>
</clipPath>
</defs>
</svg>
