<svg width="17" height="38" viewBox="0 0 17 38" fill="none" xmlns="http://www.w3.org/2000/svg">
<g clip-path="url(#clip0_941_190)">
<path fill-rule="evenodd" clip-rule="evenodd" d="M8.42408 29.9236C6.23118 29.9236 4.53672 29.5906 3.72188 29.3922C3.16467 29.2565 2.71723 29.116 2.37733 28.9718L3.46406 30.8485L3.88916 36.7124C3.88916 37.3698 5.9552 37.9027 8.50374 37.9027C11.0523 37.9027 13.1183 37.3698 13.1183 36.7124L13.4549 30.7847L14.4832 28.9663C14.1418 29.1125 13.6904 29.2548 13.1262 29.3922C12.3113 29.5906 10.6169 29.9236 8.42408 29.9236ZM14.5184 10.8423C12.909 11.0695 10.7729 11.1947 8.50374 11.1947C6.23458 11.1947 4.0985 11.0695 2.48904 10.8423C1.69179 10.7297 1.06104 10.597 0.614281 10.4479C0.507716 10.4123 0.327127 10.3515 0.153338 10.2547L1.15051 19.5311C1.19685 19.3713 1.24843 19.2118 1.30565 19.0528C1.4227 18.727 1.55812 18.4085 1.7118 18.0973C1.86558 17.7862 2.03296 17.4922 2.21393 17.2152C2.39481 16.9383 2.58745 16.6833 2.79154 16.4503C2.99574 16.2173 3.20518 16.017 3.42025 15.8491C3.63523 15.6814 3.85225 15.5502 4.0713 15.4558C4.29046 15.3613 4.50748 15.314 4.72245 15.314C4.97007 15.314 5.20962 15.3824 5.44102 15.5193C5.67232 15.6561 5.88856 15.8777 6.09003 16.184C6.13627 16.2524 6.16561 16.3216 6.17775 16.3916C6.19009 16.4617 6.19611 16.5277 6.19611 16.5896C6.19611 16.7362 6.16143 16.852 6.09207 16.9366C6.02271 17.0213 5.94033 17.0637 5.84513 17.0637C5.7579 17.0637 5.67698 17.0172 5.60218 16.9244C5.52728 16.8315 5.44364 16.6988 5.35106 16.5261C5.26393 16.3696 5.16805 16.2565 5.06333 16.1864C4.95851 16.1164 4.84495 16.0814 4.72245 16.0814C4.53196 16.0814 4.32854 16.1612 4.1122 16.3208C3.89577 16.4804 3.68147 16.6914 3.46931 16.9537C3.25696 17.2161 3.05354 17.5157 2.85896 17.853C2.66438 18.1902 2.49215 18.5355 2.34245 18.889C2.19276 19.2427 2.07385 19.5914 1.98536 19.9351C1.89686 20.2787 1.85266 20.5874 1.85266 20.8611C1.85266 20.9524 1.85888 21.0462 1.87102 21.1421C1.88336 21.2384 1.90638 21.3255 1.94048 21.4037C1.97438 21.482 2.02072 21.5462 2.0792 21.5966C2.13777 21.6472 2.21189 21.6724 2.30165 21.6724C2.40239 21.6724 2.51663 21.6382 2.64466 21.5698C2.7725 21.5015 2.9052 21.4118 3.04256 21.3011C3.18002 21.1902 3.31816 21.0649 3.45697 20.9246C3.59589 20.7846 3.72509 20.6429 3.84477 20.4995C3.96445 20.3562 4.07062 20.2184 4.1631 20.0866C4.25568 19.9546 4.32504 19.8397 4.37138 19.7419L4.75101 18.5934C4.79725 18.4697 4.85777 18.3817 4.93267 18.3295C5.00747 18.2774 5.08441 18.2513 5.16338 18.2513C5.20137 18.2513 5.23945 18.2579 5.27762 18.2708C5.3158 18.2839 5.3497 18.3043 5.37972 18.3319C5.40964 18.3597 5.43344 18.3954 5.45112 18.4395C5.4688 18.4834 5.47764 18.5348 5.47764 18.5934C5.47764 18.7498 5.46404 18.8963 5.43684 19.0333C5.40964 19.1703 5.37496 19.3037 5.3327 19.4341C5.29054 19.5643 5.24353 19.6955 5.19185 19.8274C5.14017 19.9594 5.08975 20.0971 5.04089 20.2405C5.03001 20.2568 5.01029 20.308 4.98163 20.3943C4.95307 20.4808 4.91849 20.5892 4.87759 20.7194C4.83679 20.8498 4.79249 20.9955 4.74489 21.1569C4.6972 21.3182 4.64833 21.4827 4.59801 21.6505C4.5476 21.8183 4.49932 21.9828 4.45308 22.1442C4.40674 22.3054 4.36516 22.4512 4.32854 22.5816C4.29182 22.7118 4.26122 22.8209 4.23664 22.909C4.21216 22.997 4.1972 23.049 4.19176 23.0655C4.17816 23.1174 4.1563 23.1754 4.12648 23.2388C4.09656 23.3023 4.0612 23.3627 4.0203 23.4197C3.9795 23.4766 3.93462 23.5241 3.88557 23.5614C3.83661 23.5988 3.78629 23.6176 3.73451 23.6176C3.64747 23.6176 3.58413 23.5883 3.54479 23.5297C3.50525 23.471 3.48563 23.3635 3.48563 23.2072V23.1387C3.48563 23.1159 3.48689 23.0913 3.48961 23.0655C3.49224 23.0133 3.51273 22.9155 3.55091 22.772C3.58899 22.6287 3.63455 22.4667 3.68769 22.2859C3.74073 22.105 3.79794 21.9176 3.85914 21.7237C3.92025 21.5299 3.97542 21.3565 4.02448 21.2033C3.88003 21.3663 3.72373 21.5283 3.55499 21.6896C3.38616 21.8509 3.21334 21.9959 3.03654 22.1245C2.85954 22.2533 2.68129 22.3583 2.50177 22.4398C2.32215 22.5212 2.14933 22.5621 1.98332 22.5621C1.79282 22.5621 1.62884 22.5197 1.49129 22.4349C1.46652 22.4195 1.4431 22.4023 1.41979 22.3852L1.97467 28.2657C2.11912 28.6317 4.83854 29.5308 8.42408 29.5308C12.0113 29.5308 14.7318 28.6308 14.8737 28.2651L15.6707 21.2737C15.6048 21.3349 15.5406 21.3947 15.4792 21.4526C15.2505 21.6676 15.0347 21.8524 14.832 22.0072C14.6294 22.1619 14.4313 22.2818 14.2381 22.3664C14.0448 22.4512 13.838 22.4935 13.6175 22.4935C13.4107 22.4935 13.2507 22.4479 13.1378 22.3567C13.025 22.2655 12.9684 22.1401 12.9684 21.9804V21.9438C12.9684 21.9324 12.9698 21.9184 12.9726 21.9021C12.9834 21.8045 13.0257 21.6919 13.0992 21.5649C13.1726 21.4378 13.261 21.3059 13.3644 21.1691C13.4678 21.0323 13.578 20.8937 13.6951 20.7536C13.8121 20.6136 13.9203 20.4808 14.0197 20.3552C14.119 20.23 14.2013 20.1151 14.2665 20.0108C14.332 19.9065 14.3647 19.8219 14.3647 19.7567C14.3647 19.7176 14.351 19.6866 14.3239 19.6637C14.2966 19.6411 14.2516 19.6295 14.1891 19.6295C14.0802 19.6295 13.9679 19.6581 13.8524 19.715C13.7366 19.772 13.6222 19.8488 13.5093 19.9448C13.3964 20.0409 13.2862 20.151 13.1786 20.2747C13.0713 20.3985 12.9706 20.5273 12.8766 20.6607C12.7827 20.7944 12.6971 20.9289 12.6195 21.0641C12.5419 21.1993 12.4759 21.3239 12.4214 21.4378C12.4051 21.4737 12.382 21.5243 12.352 21.5893C12.322 21.6545 12.2894 21.7279 12.254 21.8093C12.2186 21.8908 12.1812 21.9748 12.1417 22.0609C12.1023 22.1474 12.0663 22.2289 12.0336 22.3054C12.001 22.382 11.9717 22.4502 11.946 22.5106C11.92 22.5708 11.9016 22.6124 11.8907 22.6353C11.8771 22.6646 11.8547 22.7199 11.8234 22.8014C11.7921 22.8829 11.756 22.9782 11.7153 23.0873C11.6745 23.1964 11.6315 23.3113 11.5866 23.4319C11.5419 23.5523 11.4995 23.6665 11.4601 23.774C11.4205 23.8815 11.3859 23.976 11.356 24.0575C11.3261 24.1388 11.3069 24.1943 11.2987 24.2237C11.2716 24.3084 11.2396 24.388 11.2029 24.4633C11.1661 24.5381 11.1241 24.6041 11.0764 24.6612C11.0288 24.7182 10.9744 24.7637 10.9131 24.7979C10.8518 24.8323 10.7831 24.8492 10.707 24.8492C10.6089 24.8492 10.5281 24.8255 10.464 24.7783C10.4002 24.7311 10.3681 24.6406 10.3681 24.5071C10.3681 24.4419 10.3763 24.3752 10.3926 24.3068C10.4089 24.2384 10.4294 24.1706 10.4539 24.104C10.4784 24.037 10.5036 23.972 10.5295 23.9085C10.5552 23.8448 10.5791 23.7839 10.6008 23.7251C10.7478 23.3994 10.8975 23.0728 11.0499 22.7452C11.2022 22.4178 11.3485 22.0937 11.4887 21.7727C11.5179 21.7057 11.5447 21.6402 11.5732 21.5736C11.5646 21.582 11.5563 21.5909 11.5479 21.5991C11.3709 21.7719 11.1948 21.9241 11.0193 22.0561C10.8436 22.1881 10.6694 22.2931 10.4968 22.3714C10.3239 22.4494 10.1558 22.4886 9.99245 22.4886C9.88093 22.4886 9.78777 22.4708 9.71297 22.4349C9.63808 22.399 9.57833 22.3501 9.53336 22.2883C9.48838 22.2265 9.45632 22.1531 9.43728 22.0684C9.43087 22.0394 9.42689 22.0092 9.42271 21.979C9.37492 22.0166 9.32673 22.0532 9.27816 22.088C9.10942 22.2084 8.94341 22.3054 8.78011 22.3787C8.61691 22.452 8.46984 22.4886 8.33937 22.4886C8.20862 22.4886 8.10254 22.4446 8.02074 22.3567C7.93914 22.2688 7.89844 22.1188 7.89844 21.9071C7.89844 21.7571 7.9202 21.5828 7.96362 21.3842C7.8929 21.5112 7.8045 21.64 7.69842 21.7702C7.59215 21.9006 7.47111 22.0195 7.33511 22.1271C7.19882 22.2345 7.0465 22.3217 6.87786 22.3885C6.70902 22.4552 6.52533 22.4886 6.32677 22.4886C6.23691 22.4886 6.15055 22.4772 6.06749 22.4545C5.98444 22.4316 5.91168 22.3925 5.84912 22.3371C5.78646 22.2818 5.73624 22.2076 5.69806 22.1148C5.65998 22.022 5.64094 21.9054 5.64094 21.7653C5.64094 21.7621 5.64638 21.7124 5.65726 21.6162C5.66814 21.5201 5.70282 21.3686 5.7614 21.1617C5.81988 20.9549 5.91041 20.6868 6.03272 20.3577C6.15531 20.0286 6.32813 19.6295 6.55126 19.1604C6.60838 19.0365 6.67444 18.9478 6.74914 18.894C6.82414 18.8402 6.90496 18.8133 6.992 18.8133C7.03018 18.8133 7.06962 18.8191 7.11042 18.8304C7.15141 18.8419 7.1894 18.8598 7.22485 18.8842C7.26012 18.9087 7.28877 18.9397 7.31063 18.9771C7.3322 19.0145 7.34327 19.0576 7.34327 19.1065C7.34327 19.1391 7.33909 19.1703 7.33093 19.1993C7.31724 19.255 7.288 19.3273 7.24331 19.4168C7.19833 19.5066 7.14588 19.6092 7.08594 19.7248C7.0262 19.8405 6.96286 19.9651 6.89622 20.0988C6.82948 20.2323 6.7676 20.3707 6.71048 20.5142C6.65336 20.6577 6.6043 20.8034 6.5635 20.9516C6.5227 21.0999 6.49949 21.2442 6.49414 21.3842C6.49414 21.4428 6.50765 21.4965 6.53494 21.5454C6.56214 21.5943 6.60712 21.6187 6.66968 21.6187C6.84648 21.6187 7.01522 21.5599 7.17589 21.4428C7.33637 21.3255 7.48461 21.1796 7.62081 21.0053C7.7569 20.8311 7.87998 20.6436 7.99024 20.4432C8.1005 20.2428 8.1923 20.0597 8.26574 19.8934C8.31751 19.7828 8.36308 19.6637 8.40252 19.5367C8.44196 19.4095 8.48489 19.2924 8.53113 19.1848C8.57747 19.0772 8.63041 18.9876 8.69035 18.9159C8.75009 18.8444 8.82509 18.8084 8.91475 18.8084C9.01286 18.8084 9.09029 18.8459 9.1476 18.9208C9.20472 18.9959 9.23318 19.0854 9.23318 19.1896C9.23318 19.2482 9.21492 19.329 9.1781 19.4316C9.14129 19.5342 9.09505 19.6516 9.03929 19.7836C8.98343 19.9155 8.92291 20.0564 8.85773 20.2062C8.79245 20.3562 8.73173 20.5084 8.67617 20.6633C8.62012 20.818 8.57407 20.9695 8.53725 21.1178C8.50044 21.2659 8.48217 21.4037 8.48217 21.5307C8.48217 21.648 8.54201 21.7067 8.66169 21.7067C8.74611 21.7067 8.85083 21.6774 8.97605 21.6187C9.10126 21.5599 9.2326 21.4777 9.36996 21.3718C9.40425 21.3454 9.43883 21.3178 9.47313 21.2888C9.5115 21.1289 9.55648 20.981 9.60884 20.8466C9.70404 20.5923 9.80069 20.3399 9.89871 20.089C9.99663 19.8382 10.0864 19.6084 10.1682 19.3998L11.405 16.2475C11.454 16.1204 11.52 16.0308 11.6029 15.9786C11.686 15.9266 11.7697 15.9005 11.8541 15.9005C11.9383 15.9005 12.0152 15.9282 12.0846 15.9836C12.1541 16.039 12.1889 16.1286 12.1889 16.2524C12.1889 16.311 12.1772 16.373 12.1541 16.4381C12.131 16.5033 12.1017 16.5733 12.0663 16.6482C11.9984 16.8015 11.9173 16.9887 11.8234 17.2103C11.7295 17.4319 11.6287 17.673 11.5213 17.9336C11.4137 18.1943 11.3035 18.4655 11.1906 18.7473C11.0777 19.0293 10.9675 19.3037 10.8599 19.5709C10.7526 19.8381 10.6518 20.0913 10.5578 20.3309C10.464 20.5704 10.3832 20.7781 10.315 20.954C10.285 21.0289 10.2558 21.1162 10.2273 21.2156C10.1987 21.3148 10.1845 21.4037 10.1845 21.482C10.1845 21.5307 10.1927 21.5698 10.209 21.5991C10.2253 21.6285 10.2566 21.6432 10.3028 21.6432C10.3599 21.6432 10.4313 21.6229 10.5171 21.582C10.6028 21.5414 10.6953 21.4875 10.7947 21.4207C10.8941 21.354 10.9975 21.2774 11.1048 21.191C11.2125 21.1047 11.3192 21.0152 11.4253 20.9223C11.5316 20.8293 11.6329 20.7365 11.7295 20.6436C11.826 20.5508 11.9126 20.4653 11.9888 20.387C12.0067 20.3683 12.0281 20.355 12.0516 20.3451C12.0975 20.2064 12.1395 20.0705 12.1765 19.9375C12.1983 19.8788 12.2283 19.7958 12.2664 19.6882C12.3044 19.5806 12.348 19.4747 12.3969 19.3705C12.4459 19.2663 12.5012 19.1758 12.5622 19.0993C12.6235 19.0228 12.6895 18.9844 12.7602 18.9844C12.8691 18.9844 12.9481 19.0097 12.9971 19.0601C13.046 19.1107 13.0705 19.1848 13.0705 19.2826C13.0705 19.3021 13.0678 19.3331 13.0624 19.3754C13.0568 19.4178 13.0502 19.4627 13.0421 19.5099C13.0339 19.557 13.025 19.6019 13.0154 19.6443C13.0058 19.6866 12.9971 19.7176 12.9889 19.7371C13.0895 19.6263 13.1984 19.5164 13.3154 19.4073C13.4325 19.2981 13.5535 19.1993 13.6787 19.1115C13.804 19.0235 13.9319 18.952 14.0626 18.8963C14.1931 18.8411 14.3239 18.8133 14.4544 18.8133C14.5442 18.8133 14.6334 18.8264 14.7218 18.8525C14.8102 18.8785 14.8892 18.9168 14.9585 18.9673C15.0279 19.018 15.0845 19.0814 15.1279 19.158C15.1714 19.2345 15.1932 19.3232 15.1932 19.4243C15.1932 19.558 15.16 19.7005 15.0932 19.852C15.0266 20.0035 14.9429 20.1558 14.8422 20.3088C14.7415 20.4621 14.6326 20.611 14.5157 20.756C14.3987 20.9011 14.2892 21.0329 14.1871 21.1519C14.085 21.271 13.9992 21.3718 13.9297 21.4549C13.8606 21.5381 13.8243 21.5943 13.8216 21.6237C13.8216 21.6627 13.834 21.6945 13.8584 21.719C13.8829 21.7434 13.9237 21.7556 13.9808 21.7556C14.0271 21.7556 14.0953 21.7295 14.1849 21.6774C14.2747 21.6252 14.4007 21.5349 14.5625 21.4062C14.7244 21.2774 14.93 21.1047 15.179 20.888C15.3498 20.7395 15.5497 20.5625 15.775 20.3611L16.8546 10.2544C16.6807 10.3514 16.4999 10.4123 16.3932 10.4479C15.9465 10.597 15.3158 10.7297 14.5184 10.8423ZM8.49733 8.44434C3.82976 8.44434 0.0458984 8.97186 0.0458984 9.62263C0.0458984 10.2734 3.82976 10.8009 8.49733 10.8009C13.1649 10.8009 16.9488 10.2734 16.9488 9.62263C16.9488 8.97186 13.1649 8.44434 8.49733 8.44434ZM11.8719 9.96699C11.8719 10.1197 11.4222 10.2435 10.8674 10.2435C10.3127 10.2435 9.86306 10.1197 9.86306 9.96699C9.86306 9.8142 10.3127 9.69038 10.8674 9.69038C11.4222 9.69038 11.8719 9.8142 11.8719 9.96699Z" fill="#DA4648"/>
<path fill-rule="evenodd" clip-rule="evenodd" d="M10.0661 9.8443C10.0612 9.85232 10.0586 9.86052 10.0586 9.86885C10.0586 9.96772 10.4206 10.0477 10.8671 10.0477C11.3137 10.0477 11.6756 9.96772 11.6756 9.86885L12.7317 5.54077L16.9315 1.05886C16.9328 1.05749 16.9342 1.05608 16.9354 1.05461C17.0243 0.952985 16.8439 0.638479 16.5446 0.368748C16.2453 0.0990165 15.9221 0.00769867 15.8217 0.110407C15.8209 0.111175 15.8202 0.111954 15.8195 0.112744L11.3385 4.87877L10.0661 9.8443Z" fill="#DA4648"/>
</g>
<defs>
<clipPath id="clip0_941_190">
<rect width="17" height="38" fill="white"/>
</clipPath>
</defs>
</svg>
