<svg width="19" height="17" viewBox="0 0 19 17" fill="none" xmlns="http://www.w3.org/2000/svg">
<g clip-path="url(#clip0_759_202)">
<path d="M9.50012 10.2029C10.4354 10.2029 11.1936 9.44047 11.1936 8.49991C11.1936 7.55935 10.4354 6.79688 9.50012 6.79688C8.56484 6.79688 7.80664 7.55935 7.80664 8.49991C7.80664 9.44047 8.56484 10.2029 9.50012 10.2029Z" fill="#61DAFB"/>
<path d="M9.50004 11.989C14.5186 11.989 18.587 10.4269 18.587 8.49988C18.587 6.57288 14.5186 5.01074 9.50004 5.01074C4.48145 5.01074 0.413086 6.57288 0.413086 8.49988C0.413086 10.4269 4.48145 11.989 9.50004 11.989Z" stroke="#61DAFB"/>
<path d="M6.49495 10.2449C9.00425 14.6156 12.3837 17.3777 14.0432 16.4142C15.7026 15.4507 15.0137 11.1265 12.5044 6.75574C9.99512 2.38499 6.61567 -0.377132 4.95621 0.586368C3.29674 1.54987 3.98566 5.87413 6.49495 10.2449Z" stroke="#61DAFB"/>
<path d="M6.49491 6.75585C3.98562 11.1266 3.2967 15.4509 4.95616 16.4144C6.61563 17.3779 9.99508 14.6157 12.5044 10.245C15.0137 5.87425 15.7026 1.54998 14.0431 0.586484C12.3837 -0.377017 9.0042 2.3851 6.49491 6.75585Z" stroke="#61DAFB"/>
</g>
<defs>
<clipPath id="clip0_759_202">
<rect width="19" height="17" fill="white"/>
</clipPath>
</defs>
</svg>
