<svg width="17" height="17" viewBox="0 0 17 17" fill="none" xmlns="http://www.w3.org/2000/svg">
<g clip-path="url(#clip0_923_38)">
<path d="M15.3398 0H1.66016C0.743277 0 0 0.743277 0 1.66016V15.3398C0 16.2567 0.743277 17 1.66016 17H15.3398C16.2567 17 17 16.2567 17 15.3398V1.66016C17 0.743277 16.2567 0 15.3398 0Z" fill="#3178C6"/>
<path d="M17.0001 17.0005V0L0 0.00069847C0.00101573 5.10515 0.000133632 11.8955 0.000133632 17L17.0001 17.0005Z" fill="#3178C6"/>
<path fill-rule="evenodd" clip-rule="evenodd" d="M10.5234 13.5278V15.1899C10.7936 15.3285 11.1132 15.4323 11.4821 15.5016C11.8511 15.5708 12.2399 15.6055 12.6487 15.6055C13.0471 15.6055 13.4256 15.5674 13.7841 15.4912C14.1427 15.415 14.4571 15.2895 14.7273 15.1146C14.9975 14.9397 15.2114 14.7112 15.369 14.4289C15.5266 14.1467 15.6055 13.7979 15.6055 13.3823C15.6055 13.081 15.5604 12.817 15.4704 12.5902C15.3803 12.3634 15.2504 12.1617 15.0806 11.9851C14.9109 11.8085 14.7074 11.65 14.4701 11.5098C14.2328 11.3695 13.9651 11.2371 13.6672 11.1124C13.449 11.0224 13.2532 10.935 13.08 10.8501C12.9068 10.7652 12.7596 10.6787 12.6383 10.5904C12.517 10.5021 12.4235 10.4086 12.3577 10.3099C12.2919 10.2112 12.259 10.0995 12.259 9.97485C12.259 9.8606 12.2884 9.75757 12.3473 9.66579C12.4062 9.57402 12.4894 9.49526 12.5967 9.42946C12.7041 9.36368 12.8358 9.31258 12.9917 9.27622C13.1476 9.23986 13.3208 9.2217 13.5113 9.2217C13.6499 9.2217 13.7962 9.2321 13.9504 9.25285C14.1046 9.27363 14.2596 9.30567 14.4155 9.34894C14.5714 9.39223 14.7229 9.44679 14.8702 9.51256C15.0174 9.57837 15.1534 9.65454 15.2781 9.74113V8.18802C15.0252 8.09107 14.7489 8.01922 14.4493 7.97247C14.1496 7.92572 13.8058 7.90234 13.4178 7.90234C13.0228 7.90234 12.6487 7.94478 12.2954 8.02961C11.942 8.11445 11.6311 8.24689 11.3626 8.42695C11.0941 8.60705 10.8819 8.83645 10.726 9.11522C10.5701 9.39396 10.4922 9.72725 10.4922 10.1151C10.4922 10.6103 10.6351 11.0328 10.9209 11.3825C11.2067 11.7323 11.6406 12.0283 12.2226 12.2707C12.4512 12.3642 12.6643 12.456 12.8618 12.546C13.0592 12.6361 13.2299 12.7296 13.3736 12.8265C13.5174 12.9235 13.6308 13.0291 13.714 13.1434C13.7971 13.2576 13.8387 13.3875 13.8387 13.533C13.8387 13.6403 13.8127 13.7399 13.7607 13.8316C13.7088 13.9234 13.6299 14.003 13.5243 14.0706C13.4186 14.1381 13.287 14.1909 13.1294 14.229C12.9717 14.2671 12.7873 14.2861 12.5759 14.2861C12.2157 14.2861 11.8589 14.2229 11.5055 14.0965C11.1521 13.9701 10.8247 13.7806 10.5234 13.5278ZM7.72902 9.43241H9.86133V8.06836H3.91797V9.43241H6.03985V15.5059H7.72902V9.43241Z" fill="white"/>
</g>
<defs>
<clipPath id="clip0_923_38">
<rect width="17" height="17" fill="white"/>
</clipPath>
</defs>
</svg>
