<svg width="17" height="17" viewBox="0 0 17 17" fill="none" xmlns="http://www.w3.org/2000/svg">
<g clip-path="url(#clip0_941_160)">
<path d="M16.9412 2.56806L8.96173 16.7644C8.79698 17.0575 8.37371 17.0592 8.20649 16.7675L0.0687645 2.56943C-0.113414 2.25158 0.159771 1.86657 0.521797 1.93095L8.50984 3.35152C8.5608 3.36058 8.61297 3.36049 8.66393 3.35126L16.4849 1.93298C16.8457 1.86756 17.1202 2.24958 16.9412 2.56806Z" fill="url(#paint0_linear_941_160)"/>
<path d="M12.3146 0.0676425L6.4095 1.21884C6.31244 1.23776 6.24058 1.3196 6.23473 1.4178L5.87149 7.52156C5.86294 7.66533 5.99565 7.77691 6.13668 7.74455L7.78073 7.36705C7.93456 7.33176 8.07355 7.46655 8.04193 7.62046L7.55349 10.0002C7.52061 10.1603 7.67175 10.2973 7.82896 10.2498L8.8444 9.94281C9.00183 9.89526 9.15309 10.0326 9.11979 10.1929L8.34355 13.9309C8.29498 14.1647 8.60757 14.2922 8.73794 14.0917L8.82502 13.9578L13.6368 4.40383C13.7174 4.24387 13.5784 4.06146 13.4018 4.09537L11.7096 4.42032C11.5505 4.45082 11.4152 4.30347 11.4601 4.14867L12.5646 0.339146C12.6096 0.184086 12.4738 0.0366102 12.3146 0.0676425Z" fill="url(#paint1_linear_941_160)"/>
</g>
<defs>
<linearGradient id="paint0_linear_941_160" x1="-0.129924" y1="1.42359" x2="9.73575" y2="14.8903" gradientUnits="userSpaceOnUse">
<stop stop-color="#41D1FF"/>
<stop offset="1" stop-color="#BD34FE"/>
</linearGradient>
<linearGradient id="paint1_linear_941_160" x1="8.05095" y1="0.380191" x2="9.82963" y2="12.644" gradientUnits="userSpaceOnUse">
<stop stop-color="#FFEA83"/>
<stop offset="0.0833333" stop-color="#FFDD35"/>
<stop offset="1" stop-color="#FFA800"/>
</linearGradient>
<clipPath id="clip0_941_160">
<rect width="17" height="17" fill="white"/>
</clipPath>
</defs>
</svg>
