<svg width="19" height="19" viewBox="0 0 19 19" fill="none" xmlns="http://www.w3.org/2000/svg">
<path d="M1.31738 9.26257C1.31738 12.4082 3.14546 15.1267 5.79631 16.4149L2.00543 6.02832C1.56447 7.01668 1.31738 8.11044 1.31738 9.26257Z" fill="#464342"/>
<path d="M14.6289 8.86317C14.6289 7.88101 14.2761 7.20083 13.9735 6.67141C13.5707 6.01679 13.1931 5.46242 13.1931 4.8078C13.1931 4.07727 13.7472 3.39724 14.5276 3.39724C14.5628 3.39724 14.5963 3.40162 14.6306 3.40359C13.2167 2.10825 11.333 1.31738 9.26401 1.31738C6.48765 1.31738 4.04502 2.74186 2.62402 4.89944C2.81048 4.90503 2.98619 4.90896 3.13544 4.90896C3.96669 4.90896 5.2534 4.8081 5.2534 4.8081C5.68181 4.78285 5.73231 5.41207 5.30436 5.46273C5.30436 5.46273 4.87385 5.51338 4.39479 5.53849L7.2888 14.1466L9.02796 8.93061L7.78979 5.53818C7.36184 5.51308 6.95642 5.46242 6.95642 5.46242C6.52817 5.43732 6.57838 4.78255 7.00663 4.8078C7.00663 4.8078 8.31905 4.90866 9.09994 4.90866C9.93103 4.90866 11.2179 4.8078 11.2179 4.8078C11.6466 4.78255 11.697 5.41176 11.2689 5.46242C11.2689 5.46242 10.8374 5.51308 10.3593 5.53818L13.2312 14.0811L14.0239 11.4322C14.3675 10.333 14.6289 9.5435 14.6289 8.86317Z" fill="#464342"/>
<path d="M9.40296 9.95801L7.01855 16.8867C7.73049 17.096 8.4834 17.2104 9.26354 17.2104C10.189 17.2104 11.0765 17.0504 11.9026 16.7599C11.8813 16.7259 11.8619 16.6898 11.846 16.6505L9.40296 9.95801Z" fill="#464342"/>
<path d="M16.2361 5.4502C16.2702 5.70333 16.2896 5.97507 16.2896 6.26738C16.2896 7.07382 16.139 7.98038 15.6853 9.11391L13.2578 16.1324C15.6204 14.7546 17.2096 12.195 17.2096 9.26316C17.2097 7.88148 16.8568 6.58221 16.2361 5.4502Z" fill="#464342"/>
<path d="M9.26327 0C4.15564 0 0 4.15533 0 9.26297C0 14.3712 4.15564 18.5264 9.26327 18.5264C14.3708 18.5264 18.527 14.3712 18.527 9.26297C18.5268 4.15533 14.3708 0 9.26327 0ZM9.26327 18.1018C4.38986 18.1018 0.424742 14.1367 0.424742 9.26297C0.424742 4.38955 4.38971 0.424742 9.26327 0.424742C14.1365 0.424742 18.1014 4.38955 18.1014 9.26297C18.1014 14.1367 14.1365 18.1018 9.26327 18.1018Z" fill="#464342"/>
</svg>
